<?xml version="1.0" encoding="UTF-8" standalone="no"?>
<!-- Created with Inkscape (http://www.inkscape.org/) -->

<svg width="210mm" height="297mm" viewBox="0 0 210 297" version="1.1" id="svg1"
   inkscape:version="1.3.2 (091e20e, 2023-11-25, custom)" sodipodi:docname="GOLEM.svg"
   xmlns:inkscape="http://www.inkscape.org/namespaces/inkscape"
   xmlns:sodipodi="http://sodipodi.sourceforge.net/DTD/sodipodi-0.dtd" xmlns="http://www.w3.org/2000/svg"
   xmlns:svg="http://www.w3.org/2000/svg">
   <sodipodi:namedview id="namedview1" pagecolor="#ffffff" bordercolor="#000000" borderopacity="0.25"
      inkscape:showpageshadow="2" inkscape:pageopacity="0.0" inkscape:pagecheckerboard="0" inkscape:deskcolor="#d1d1d1"
      inkscape:document-units="mm" inkscape:zoom="1.617789" inkscape:cx="191.61955" inkscape:cy="582.89431"
      inkscape:window-width="3840" inkscape:window-height="2054" inkscape:window-x="-11" inkscape:window-y="-11"
      inkscape:window-maximized="1" inkscape:current-layer="layer1" />
   <defs id="defs1" />
   <g id="lines_group" style="stroke-width:1.05833333;stroke-dasharray:none">
      <line x1="13.094206" y1="239.64343" x2="17.077414" y2="227.57159" id="traverse-step-1" />
      <line x1="17.077414" y1="227.57159" x2="25.852682" y2="214.85487999999998" id="traverse-step-2" />
      <line x1="25.852682" y1="214.85487999999998" x2="34.168996" y2="202.80326999999997" id="traverse-step-3" />
      <line x1="34.168996" y1="202.80326999999997" x2="28.03306" y2="219.51554999999996" id="traverse-step-4" />
      <line x1="28.03306" y1="219.51554999999996" x2="42.497523" y2="205.77256999999997" id="traverse-step-5" />
      <line x1="42.497523" y1="205.77256999999997" x2="48.43612" y2="212.94234999999998" id="traverse-step-6" />
      <line x1="48.43612" y1="212.94234999999998" x2="58.21308500000001" y2="212.58023999999997" id="traverse-step-7" />
      <line x1="58.21308500000001" y1="212.58023999999997" x2="66.39676700000001" y2="204.97592999999998"
         id="traverse-step-8" />
      <line x1="66.39676700000001" y1="204.97592999999998" x2="81.60537900000001" y2="195.85075999999998"
         id="traverse-step-9" />
      <line x1="81.60537900000001" y1="195.85075999999998" x2="85.87827500000002" y2="185.13231"
         id="traverse-step-10" />
      <line x1="85.87827500000002" y1="185.13231" x2="81.53295700000001" y2="166.44745" id="traverse-step-11" />
      <line x1="81.53295700000001" y1="166.44745" x2="100.53077000000002" y2="154.89078" id="traverse-step-12" />
      <line x1="100.53077000000002" y1="154.89078" x2="111.22596000000001" y2="159.63979" id="traverse-step-13" />
      <line x1="111.22596000000001" y1="159.63979" x2="126.85275000000001" y2="178.14015" id="traverse-step-14" />
      <line x1="126.85275000000001" y1="178.14015" x2="105.83757000000001" y2="192.3445" id="traverse-step-15" />
      <line x1="105.83757000000001" y1="192.3445" x2="93.66862700000001" y2="205.28148000000002"
         id="traverse-step-16" />
      <line x1="93.66862700000001" y1="205.28148000000002" x2="105.83757000000001" y2="192.3445"
         id="traverse-step-17" />
      <line x1="105.83757000000001" y1="192.3445" x2="90.02366700000002" y2="177.64046000000002"
         id="traverse-step-18" />
      <line x1="90.02366700000002" y1="177.64046000000002" x2="111.22596000000001" y2="159.63979"
         id="traverse-step-19" />
      <line x1="111.22596000000001" y1="159.63979" x2="81.53295700000001" y2="166.44745" id="traverse-step-20" />
      <line x1="81.53295700000001" y1="166.44745" x2="90.02366700000002" y2="177.64046" id="traverse-step-21" />
      <line x1="90.02366700000002" y1="177.64046" x2="85.87827500000002" y2="185.13231" id="traverse-step-22" />
      <line x1="85.87827500000002" y1="185.13231" x2="93.66862700000001" y2="205.28148" id="traverse-step-23" />
      <line x1="93.66862700000001" y1="205.28148" x2="103.91063000000001" y2="214.80655" id="traverse-step-24" />
      <line x1="103.91063000000001" y1="214.80655" x2="103.91063000000001" y2="214.80655" id="traverse-step-25" />
      <line x1="103.91063000000001" y1="214.80655" x2="117.15544000000001" y2="196.70952999999997"
         id="traverse-step-26" />
      <line x1="117.15544000000001" y1="196.70952999999997" x2="126.85275000000001" y2="178.14014999999998"
         id="traverse-step-27" />
      <line x1="126.85275000000001" y1="178.14014999999998" x2="124.31559000000001" y2="212.75838999999996"
         id="traverse-step-28" />
      <line x1="124.31559000000001" y1="212.75838999999996" x2="144.77243" y2="198.38744999999997"
         id="traverse-step-29" />
      <line x1="144.77243" y1="198.38744999999997" x2="133.40764000000001" y2="186.33375999999998"
         id="traverse-step-30" />
      <line x1="133.40764000000001" y1="186.33375999999998" x2="121.89242000000002" y2="215.58226"
         id="traverse-step-31" />
      <line x1="121.89242000000002" y1="215.58226" x2="103.91063000000001" y2="214.80655" id="traverse-step-32" />
      <line x1="103.91063000000001" y1="214.80655" x2="104.42274000000002" y2="225.2534" id="traverse-step-33" />
      <line x1="104.42274000000002" y1="225.2534" x2="130.64229000000003" y2="229.75989" id="traverse-step-34" />
      <line x1="130.64229000000003" y1="229.75989" x2="132.98191000000003" y2="226.63672000000003"
         id="traverse-step-35" />
      <line x1="132.98191000000003" y1="226.63672000000003" x2="118.61314000000003" y2="224.23311000000004"
         id="traverse-step-36" />
      <line x1="118.61314000000003" y1="224.23311000000004" x2="121.82587000000002" y2="220.84770000000003"
         id="traverse-step-37" />
      <line x1="121.82587000000002" y1="220.84770000000003" x2="152.35536000000002" y2="200.77500000000003"
         id="traverse-step-38" />
      <line x1="152.35536000000002" y1="200.77500000000003" x2="128.8925" y2="220.91959000000003"
         id="traverse-step-39" />
      <line x1="128.8925" y1="220.91959000000003" x2="132.98191" y2="226.63672000000003" id="traverse-step-40" />
      <line x1="132.98191" y1="226.63672000000003" x2="135.10334" y2="221.3274" id="traverse-step-41" />
      <line x1="135.10334" y1="221.3274" x2="152.35536000000002" y2="200.775" id="traverse-step-42" />
      <line x1="152.35536000000002" y1="200.775" x2="133.40764000000001" y2="186.33376" id="traverse-step-43" />
      <line x1="133.40764000000001" y1="186.33376" x2="126.85275000000001" y2="178.14015" id="traverse-step-44" />
      <line x1="126.85275000000001" y1="178.14015" x2="150.81905" y2="193.50317" id="traverse-step-45" />
      <line x1="150.81905" y1="193.50317" x2="165.46513000000002" y2="201.08226000000002" id="traverse-step-46" />
      <line x1="165.46513000000002" y1="201.08226000000002" x2="147.11105" y2="168.22179000000003"
         id="traverse-step-47" />
      <line x1="147.11105" y1="168.22179000000003" x2="179.70153" y2="193.81043000000003" id="traverse-step-48" />
      <line x1="179.70153" y1="193.81043000000003" x2="165.46513" y2="201.08226000000002" id="traverse-step-49" />
      <line x1="165.46513" y1="201.08226000000002" x2="188.7145" y2="226.89213" id="traverse-step-50" />
      <line x1="188.7145" y1="226.89213" x2="184.41286" y2="239.64343000000002" id="traverse-step-51" />
      <line x1="184.41286" y1="239.64343000000002" x2="171.4055" y2="239.64343000000002" id="traverse-step-52" />
      <line x1="171.4055" y1="239.64343000000002" x2="164.78073999999998" y2="206.91667" id="traverse-step-53" />
      <line x1="164.78073999999998" y1="206.91667" x2="157.28633" y2="203.45507" id="traverse-step-54" />
      <line x1="157.28633" y1="203.45507" x2="164.78073999999998" y2="206.91667" id="traverse-step-55" />
      <line x1="164.78073999999998" y1="206.91667" x2="188.7145" y2="226.89213" id="traverse-step-56" />
      <line x1="188.7145" y1="226.89213" x2="199.87829" y2="239.64343000000002" id="traverse-step-57" />
      <line x1="199.87829" y1="239.64343000000002" x2="195.26939" y2="209.37828000000002" id="traverse-step-58" />
      <line x1="195.26939" y1="209.37828000000002" x2="191.44835999999998" y2="203.59924" id="traverse-step-59" />
      <line x1="191.44835999999998" y1="203.59924" x2="177.96039" y2="154.68594000000002" id="traverse-step-60" />
      <line x1="177.96039" y1="154.68594000000002" x2="151.22874" y2="152.4327" id="traverse-step-61" />
      <line x1="151.22874" y1="152.4327" x2="163.72399" y2="165.33763000000002" id="traverse-step-62" />
      <line x1="163.72399" y1="165.33763000000002" x2="147.11104999999998" y2="168.22179000000003"
         id="traverse-step-63" />
      <line x1="147.11104999999998" y1="168.22179000000003" x2="137.40201999999996" y2="158.27064000000001"
         id="traverse-step-64" />
      <line x1="137.40201999999996" y1="158.27064000000001" x2="151.22873999999996" y2="152.4327"
         id="traverse-step-65" />
      <line x1="151.22873999999996" y1="152.4327" x2="126.6479" y2="152.4327" id="traverse-step-66" />
      <line x1="126.6479" y1="152.4327" x2="116.36792000000001" y2="119.62665000000001" id="traverse-step-67" />
      <line x1="116.36792000000001" y1="119.62665000000001" x2="108.92922000000002" y2="132.25593"
         id="traverse-step-68" />
      <line x1="108.92922000000002" y1="132.25593" x2="126.64790000000002" y2="152.4327" id="traverse-step-69" />
      <line x1="126.64790000000002" y1="152.4327" x2="111.22596000000001" y2="159.63979" id="traverse-step-70" />
      <line x1="111.22596000000001" y1="159.63979" x2="105.12338000000001" y2="152.45940000000002"
         id="traverse-step-71" />
      <line x1="105.12338000000001" y1="152.45940000000002" x2="101.35013000000001" y2="148.02863000000002"
         id="traverse-step-72" />
      <line x1="101.35013000000001" y1="148.02863000000002" x2="108.92922" y2="132.25593000000003"
         id="traverse-step-73" />
      <line x1="108.92922" y1="132.25593000000003" x2="111.59215" y2="148.95042000000004" id="traverse-step-74" />
      <line x1="111.59215" y1="148.95042000000004" x2="105.12338" y2="152.45940000000004" id="traverse-step-75" />
      <line x1="105.12338" y1="152.45940000000004" x2="100.53077" y2="154.89078000000003" id="traverse-step-76" />
      <line x1="100.53077" y1="154.89078000000003" x2="75.469975" y2="164.24616000000003" id="traverse-step-77" />
      <line x1="75.469975" y1="164.24616000000003" x2="81.53295700000001" y2="166.44745000000003"
         id="traverse-step-78" />
      <line x1="81.53295700000001" y1="166.44745000000003" x2="69.855945" y2="175.73328000000004"
         id="traverse-step-79" />
      <line x1="69.855945" y1="175.73328000000004" x2="57.30948600000001" y2="159.09001000000004"
         id="traverse-step-80" />
      <line x1="57.30948600000001" y1="159.09001000000004" x2="53.00783700000001" y2="153.66174000000004"
         id="traverse-step-81" />
      <line x1="53.00783700000001" y1="153.66174000000004" x2="63.14742900000001" y2="150.99882000000002"
         id="traverse-step-82" />
      <line x1="63.14742900000001" y1="150.99882000000002" x2="48.58096100000001" y2="147.29184000000004"
         id="traverse-step-83" />
      <line x1="48.58096100000001" y1="147.29184000000004" x2="41.22952400000001" y2="149.66736000000003"
         id="traverse-step-84" />
      <line x1="41.22952400000001" y1="149.66736000000003" x2="37.95208200000001" y2="157.24645000000004"
         id="traverse-step-85" />
      <line x1="37.95208200000001" y1="157.24645000000004" x2="41.60582500000001" y2="159.10231000000005"
         id="traverse-step-86" />
      <line x1="41.60582500000001" y1="159.10231000000005" x2="44.40454700000001" y2="160.52389000000005"
         id="traverse-step-87" />
      <line x1="44.40454700000001" y1="160.52389000000005" x2="57.30948600000001" y2="159.09001000000006"
         id="traverse-step-88" />
      <line x1="57.30948600000001" y1="159.09001000000006" x2="45.223909000000006" y2="177.62805000000006"
         id="traverse-step-89" />
      <line x1="45.223909000000006" y1="177.62805000000006" x2="57.616744000000004" y2="191.65961000000007"
         id="traverse-step-90" />
      <line x1="57.616744000000004" y1="191.65961000000007" x2="66.39676700000001" y2="204.97593000000006"
         id="traverse-step-91" />
      <line x1="66.39676700000001" y1="204.97593000000006" x2="74.925745" y2="183.97810000000007"
         id="traverse-step-92" />
      <line x1="74.925745" y1="183.97810000000007" x2="81.605379" y2="195.85076000000007" id="traverse-step-93" />
      <line x1="81.605379" y1="195.85076000000007" x2="93.668627" y2="205.28148000000007" id="traverse-step-94" />
      <line x1="93.668627" y1="205.28148000000007" x2="81.455027" y2="215.60031000000006" id="traverse-step-95" />
      <line x1="81.455027" y1="215.60031000000006" x2="71.955559" y2="220.02998000000005" id="traverse-step-96" />
      <line x1="71.955559" y1="220.02998000000005" x2="79.84191" y2="221.66870000000006" id="traverse-step-97" />
      <line x1="79.84191" y1="221.66870000000006" x2="89.674239" y2="220.74692000000005" id="traverse-step-98" />
      <line x1="89.674239" y1="220.74692000000005" x2="97.66301" y2="231.09135000000003" id="traverse-step-99" />
      <line x1="97.66301" y1="231.09135000000003" x2="90.391183" y2="239.64343000000002" id="traverse-step-100" />
      <line x1="90.391183" y1="239.64343000000002" x2="79.84191" y2="221.6687" id="traverse-step-101" />
      <line x1="79.84191" y1="221.6687" x2="69.087796" y2="239.64343" id="traverse-step-102" />
      <line x1="69.087796" y1="239.64343" x2="65.195834" y2="228.83811" id="traverse-step-103" />
      <line x1="65.195834" y1="228.83811" x2="63.352273" y2="239.64343" id="traverse-step-104" />
      <line x1="63.352273" y1="239.64343" x2="49.730398" y2="239.64343" id="traverse-step-105" />
      <line x1="49.730398" y1="239.64343" x2="48.603776" y2="219.6203" id="traverse-step-106" />
      <line x1="48.603776" y1="219.6203" x2="42.497523" y2="205.77257" id="traverse-step-107" />
      <line x1="42.497523" y1="205.77257" x2="31.499612" y2="239.64343" id="traverse-step-108" />
      <line x1="31.499612" y1="239.64343" x2="20.643081" y2="239.64343" id="traverse-step-109" />
      <line x1="20.643081" y1="239.64343" x2="28.03306" y2="219.51555" id="traverse-step-110" />
      <line x1="28.03306" y1="219.51555" x2="34.168996" y2="202.80327" id="traverse-step-111" />
      <line x1="34.168996" y1="202.80327" x2="41.844048" y2="200.16048" id="traverse-step-112" />
      <line x1="41.844048" y1="200.16048" x2="42.048888" y2="185.5144" id="traverse-step-113" />
      <line x1="42.048888" y1="185.5144" x2="30.885090999999996" y2="198.41933" id="traverse-step-114" />
      <line x1="30.885090999999996" y1="198.41933" x2="25.852681999999994" y2="214.85488" id="traverse-step-115" />
      <line x1="25.852681999999994" y1="214.85488" x2="21.639997999999995" y2="194.00400000000002"
         id="traverse-step-116" />
      <line x1="21.639997999999995" y1="194.00400000000002" x2="28.447661999999994" y2="161.70381000000003"
         id="traverse-step-117" />
      <line x1="28.447661999999994" y1="161.70381000000003" x2="41.22952599999999" y2="149.66736000000003"
         id="traverse-step-118" />
      <line x1="41.22952599999999" y1="149.66736000000003" x2="32.430868999999994" y2="164.85417000000004"
         id="traverse-step-119" />
      <line x1="32.430868999999994" y1="164.85417000000004" x2="28.447661999999994" y2="161.70381000000003"
         id="traverse-step-120" />
      <line x1="28.447661999999994" y1="161.70381000000003" x2="32.68434499999999" y2="176.94864000000004"
         id="traverse-step-121" />
      <line x1="32.68434499999999" y1="176.94864000000004" x2="21.63999799999999" y2="194.00400000000005"
         id="traverse-step-122" />
      <line x1="21.63999799999999" y1="194.00400000000005" x2="30.885090999999992" y2="198.41933000000006"
         id="traverse-step-123" />
      <line x1="30.885090999999992" y1="198.41933000000006" x2="34.857004999999994" y2="183.35798000000005"
         id="traverse-step-124" />
      <line x1="34.857004999999994" y1="183.35798000000005" x2="32.68434499999999" y2="176.94864000000007"
         id="traverse-step-125" />
      <line x1="32.68434499999999" y1="176.94864000000007" x2="38.731578999999996" y2="167.82347000000007"
         id="traverse-step-126" />
      <line x1="38.731578999999996" y1="167.82347000000007" x2="34.857004999999994" y2="183.35798000000008"
         id="traverse-step-127" />
      <line x1="34.857004999999994" y1="183.35798000000008" x2="38.731578999999996" y2="167.82347000000007"
         id="traverse-step-128" />
      <line x1="38.731578999999996" y1="167.82347000000007" x2="39.572948999999994" y2="187.06930000000008"
         id="traverse-step-129" />
      <line x1="39.572948999999994" y1="187.06930000000008" x2="25.852681999999994" y2="214.8548800000001"
         id="traverse-step-130" />
      <line x1="25.852681999999994" y1="214.8548800000001" x2="39.572948999999994" y2="187.06930000000008"
         id="traverse-step-131" />
      <line x1="39.572948999999994" y1="187.06930000000008" x2="48.580963999999994" y2="168.04074000000008"
         id="traverse-step-132" />
      <line x1="48.580963999999994" y1="168.04074000000008" x2="38.731578999999996" y2="167.82347000000007"
         id="traverse-step-133" />
      <line x1="38.731578999999996" y1="167.82347000000007" x2="41.605827" y2="159.10231000000007"
         id="traverse-step-134" />
      <line x1="41.605827" y1="159.10231000000007" x2="44.40455" y2="160.52389000000008" id="traverse-step-135" />
      <line x1="44.40455" y1="160.52389000000008" x2="45.249558" y2="167.7872600000001" id="traverse-step-136" />
      <line x1="45.249558" y1="167.7872600000001" x2="57.309486" y2="159.0900100000001" id="traverse-step-137" />
      <line x1="57.309486" y1="159.0900100000001" x2="66.271246" y2="159.19242000000008" id="traverse-step-138" />
      <line x1="66.271246" y1="159.19242000000008" x2="69.85595" y2="175.7332800000001" id="traverse-step-139" />
      <line x1="69.85595" y1="175.7332800000001" x2="57.616749000000006" y2="191.6596100000001"
         id="traverse-step-140" />
      <line x1="57.616749000000006" y1="191.6596100000001" x2="42.048888000000005" y2="185.5144000000001"
         id="traverse-step-141" />
      <line x1="42.048888000000005" y1="185.5144000000001" x2="45.223912000000006" y2="177.62805000000012"
         id="traverse-step-142" />
      <line x1="45.223912000000006" y1="177.62805000000012" x2="49.57676800000001" y2="198.1632800000001"
         id="traverse-step-143" />
      <line x1="49.57676800000001" y1="198.1632800000001" x2="58.213088000000006" y2="212.5802400000001"
         id="traverse-step-144" />
      <line x1="58.213088000000006" y1="212.5802400000001" x2="61.201448000000006" y2="222.6416900000001"
         id="traverse-step-145" />
      <line x1="61.201448000000006" y1="222.6416900000001" x2="60.126039000000006" y2="228.3772200000001"
         id="traverse-step-146" />
      <line x1="60.126039000000006" y1="228.3772200000001" x2="65.195836" y2="228.8381100000001"
         id="traverse-step-147" />
      <line x1="65.195836" y1="228.8381100000001" x2="71.955562" y2="220.0299800000001" id="traverse-step-148" />
      <line x1="71.955562" y1="220.0299800000001" x2="69.958371" y2="215.8819600000001" id="traverse-step-149" />
      <line x1="69.958371" y1="215.8819600000001" x2="66.396769" y2="204.97593000000012" id="traverse-step-150" />
      <line x1="66.396769" y1="204.97593000000012" x2="49.576768" y2="198.16328000000013" id="traverse-step-151" />
      <line x1="49.576768" y1="198.16328000000013" x2="42.048888000000005" y2="185.51440000000014"
         id="traverse-step-152" />
      <line x1="42.048888000000005" y1="185.51440000000014" x2="48.43612300000001" y2="212.94235000000015"
         id="traverse-step-153" />
      <line x1="48.43612300000001" y1="212.94235000000015" x2="61.20144800000001" y2="222.64169000000015"
         id="traverse-step-154" />
      <line x1="61.20144800000001" y1="222.64169000000015" x2="49.218297000000014" y2="224.79251000000016"
         id="traverse-step-155" />
      <line x1="49.218297000000014" y1="224.79251000000016" x2="60.12603900000001" y2="228.37722000000016"
         id="traverse-step-156" />
      <line x1="60.12603900000001" y1="228.37722000000016" x2="52.393318000000015" y2="234.21516000000017"
         id="traverse-step-157" />
      <line x1="52.393318000000015" y1="234.21516000000017" x2="54.13446200000001" y2="239.64343000000017"
         id="traverse-step-158" />
      <line x1="54.13446200000001" y1="239.64343000000017" x2="65.19583600000001" y2="228.83811000000017"
         id="traverse-step-159" />
      <line x1="65.19583600000001" y1="228.83811000000017" x2="71.95556200000001" y2="220.02998000000017"
         id="traverse-step-160" />
      <line x1="71.95556200000001" y1="220.02998000000017" x2="61.20144800000001" y2="222.64169000000015"
         id="traverse-step-161" />
      <line x1="61.20144800000001" y1="222.64169000000015" x2="65.19583600000001" y2="228.83811000000014"
         id="traverse-step-162" />
      <line x1="65.19583600000001" y1="228.83811000000014" x2="79.84191300000002" y2="221.66870000000014"
         id="traverse-step-163" />
      <line x1="79.84191300000002" y1="221.66870000000014" x2="81.45503000000002" y2="215.60031000000015"
         id="traverse-step-164" />
      <line x1="81.45503000000002" y1="215.60031000000015" x2="89.67424200000002" y2="220.74692000000016"
         id="traverse-step-165" />
      <line x1="89.67424200000002" y1="220.74692000000016" x2="103.91064000000001" y2="214.80655000000016"
         id="traverse-step-166" />
      <line x1="103.91064000000001" y1="214.80655000000016" x2="92.23474700000001" y2="217.26463000000015"
         id="traverse-step-167" />
      <line x1="92.23474700000001" y1="217.26463000000015" x2="81.45503000000001" y2="215.60031000000015"
         id="traverse-step-168" />
      <line x1="81.45503000000001" y1="215.60031000000015" x2="66.396769" y2="204.97593000000015"
         id="traverse-step-169" />
      <line x1="66.396769" y1="204.97593000000015" x2="69.958371" y2="215.88196000000013" id="traverse-step-170" />
      <line x1="69.958371" y1="215.88196000000013" x2="58.213088" y2="212.58024000000015" id="traverse-step-171" />
      <line x1="58.213088" y1="212.58024000000015" x2="71.955562" y2="220.02998000000014" id="traverse-step-172" />
      <line x1="71.955562" y1="220.02998000000014" x2="69.958371" y2="215.88196000000013" id="traverse-step-173" />
      <line x1="69.958371" y1="215.88196000000013" x2="81.45503" y2="215.60031000000012" id="traverse-step-174" />
      <line x1="81.45503" y1="215.60031000000012" x2="81.60538199999999" y2="195.85076000000012"
         id="traverse-step-175" />
      <line x1="81.60538199999999" y1="195.85076000000012" x2="81.532962" y2="166.44745000000012"
         id="traverse-step-176" />
      <line x1="81.532962" y1="166.44745000000012" x2="74.92575" y2="183.97810000000013" id="traverse-step-177" />
      <line x1="74.92575" y1="183.97810000000013" x2="69.85595199999999" y2="175.73328000000012"
         id="traverse-step-178" />
      <line x1="69.85595199999999" y1="175.73328000000012" x2="71.64736399999998" y2="152.3613800000001"
         id="traverse-step-179" />
      <line x1="71.64736399999998" y1="152.3613800000001" x2="75.46997899999998" y2="164.24616000000012"
         id="traverse-step-180" />
      <line x1="75.46997899999998" y1="164.24616000000012" x2="77.83944199999998" y2="153.6287600000001"
         id="traverse-step-181" />
      <line x1="77.83944199999998" y1="153.6287600000001" x2="80.96377699999998" y2="151.7485400000001"
         id="traverse-step-182" />
      <line x1="80.96377699999998" y1="151.7485400000001" x2="80.90506699999997" y2="153.7077300000001"
         id="traverse-step-183" />
      <line x1="80.90506699999997" y1="153.7077300000001" x2="84.45632499999998" y2="151.88784000000012"
         id="traverse-step-184" />
      <line x1="84.45632499999998" y1="151.88784000000012" x2="84.24909599999998" y2="150.28219000000013"
         id="traverse-step-185" />
      <line x1="84.24909599999998" y1="150.28219000000013" x2="86.44014499999999" y2="150.21649000000014"
         id="traverse-step-186" />
      <line x1="86.44014499999999" y1="150.21649000000014" x2="85.15405799999999" y2="145.62611000000012"
         id="traverse-step-187" />
      <line x1="85.15405799999999" y1="145.62611000000012" x2="87.702649" y2="145.13522000000012"
         id="traverse-step-188" />
      <line x1="87.702649" y1="145.13522000000012" x2="89.970118" y2="144.17767000000012" id="traverse-step-189" />
      <line x1="89.970118" y1="144.17767000000012" x2="93.156685" y2="142.47575000000012" id="traverse-step-190" />
      <line x1="93.156685" y1="142.47575000000012" x2="94.31543599999999" y2="140.59278000000012"
         id="traverse-step-191" />
      <line x1="94.31543599999999" y1="140.59278000000012" x2="100.72478" y2="143.8879800000001"
         id="traverse-step-192" />
      <line x1="100.72478" y1="143.8879800000001" x2="99.52981799999999" y2="133.09710000000013"
         id="traverse-step-193" />
      <line x1="99.52981799999999" y1="133.09710000000013" x2="102.29975999999999" y2="137.17470000000012"
         id="traverse-step-194" />
      <line x1="102.29975999999999" y1="137.17470000000012" x2="103.69407999999999" y2="132.73500000000013"
         id="traverse-step-195" />
      <line x1="103.69407999999999" y1="132.73500000000013" x2="103.69407999999999" y2="132.73500000000013"
         id="traverse-step-196" />
      <line x1="103.69407999999999" y1="132.73500000000013" x2="102.57153999999998" y2="128.64316000000014"
         id="traverse-step-197" />
      <line x1="102.57153999999998" y1="128.64316000000014" x2="106.37368999999998" y2="128.57076000000015"
         id="traverse-step-198" />
      <line x1="106.37368999999998" y1="128.57076000000015" x2="105.54935999999998" y2="122.32118000000015"
         id="traverse-step-199" />
      <line x1="105.54935999999998" y1="122.32118000000015" x2="109.77751999999998" y2="124.00818000000015"
         id="traverse-step-200" />
      <line x1="109.77751999999998" y1="124.00818000000015" x2="111.59214999999998" y2="114.94693000000015"
         id="traverse-step-201" />
      <line x1="111.59214999999998" y1="114.94693000000015" x2="114.15264999999998" y2="112.07917000000015"
         id="traverse-step-202" />
      <line x1="114.15264999999998" y1="112.07917000000015" x2="111.08003999999998" y2="100.40328000000015"
         id="traverse-step-203" />
      <line x1="111.08003999999998" y1="100.40328000000015" x2="116.04201999999998" y2="99.02259500000015"
         id="traverse-step-204" />
      <line x1="116.04201999999998" y1="99.02259500000015" x2="121.01479999999998" y2="113.51305000000015"
         id="traverse-step-205" />
      <line x1="121.01479999999998" y1="113.51305000000015" x2="175.80570999999998" y2="147.38479000000015"
         id="traverse-step-206" />
      <line x1="175.80570999999998" y1="147.38479000000015" x2="155.54819999999998" y2="141.46187000000015"
         id="traverse-step-207" />
      <line x1="155.54819999999998" y1="141.46187000000015" x2="121.01479999999998" y2="113.51305000000015"
         id="traverse-step-208" />
      <line x1="121.01479999999998" y1="113.51305000000015" x2="116.36791999999998" y2="119.62665000000015"
         id="traverse-step-209" />
      <line x1="116.36791999999998" y1="119.62665000000015" x2="150.76835999999997" y2="141.38945000000015"
         id="traverse-step-210" />
      <line x1="150.76835999999997" y1="141.38945000000015" x2="135.92184999999998" y2="145.84340000000014"
         id="traverse-step-211" />
      <line x1="135.92184999999998" y1="145.84340000000014" x2="138.56525" y2="149.68177000000014"
         id="traverse-step-212" />
      <line x1="138.56525" y1="149.68177000000014" x2="151.22874" y2="152.43270000000015" id="traverse-step-213" />
      <line x1="151.22874" y1="152.43270000000015" x2="147.11104999999998" y2="168.22179000000014"
         id="traverse-step-214" />
      <line x1="147.11104999999998" y1="168.22179000000014" x2="132.84391999999997" y2="171.51699000000013"
         id="traverse-step-215" />
      <line x1="132.84391999999997" y1="171.51699000000013" x2="130.09465999999998" y2="169.13865000000013"
         id="traverse-step-216" />
      <line x1="130.09465999999998" y1="169.13865000000013" x2="111.22595999999997" y2="159.63979000000012"
         id="traverse-step-217" />
      <line x1="111.22595999999997" y1="159.63979000000012" x2="132.55423999999996" y2="162.60909000000012"
         id="traverse-step-218" />
      <line x1="132.55423999999996" y1="162.60909000000012" x2="130.09465999999998" y2="169.13865000000013"
         id="traverse-step-219" />
      <line x1="130.09465999999998" y1="169.13865000000013" x2="123.71875999999997" y2="163.62300000000013"
         id="traverse-step-220" />
      <line x1="123.71875999999997" y1="163.62300000000013" x2="111.22595999999997" y2="159.63979000000012"
         id="traverse-step-221" />
      <line x1="111.22595999999997" y1="159.63979000000012" x2="137.40201999999996" y2="158.27064000000013"
         id="traverse-step-222" />
      <line x1="137.40201999999996" y1="158.27064000000013" x2="132.55423999999996" y2="162.60909000000012"
         id="traverse-step-223" />
      <line x1="132.55423999999996" y1="162.60909000000012" x2="147.11104999999998" y2="168.2217900000001"
         id="traverse-step-224" />
      <line x1="147.11104999999998" y1="168.2217900000001" x2="150.81905999999998" y2="193.50317000000013"
         id="traverse-step-225" />
      <line x1="150.81905999999998" y1="193.50317000000013" x2="157.28633" y2="203.45507000000012"
         id="traverse-step-226" />
      <line x1="157.28633" y1="203.45507000000012" x2="159.89352" y2="213.30446000000012" id="traverse-step-227" />
      <line x1="159.89352" y1="213.30446000000012" x2="133.30522" y2="231.65466000000012" id="traverse-step-228" />
      <line x1="133.30522" y1="231.65466000000012" x2="145.55398" y2="218.44642000000013" id="traverse-step-229" />
      <line x1="145.55398" y1="218.44642000000013" x2="130.6423" y2="229.75989000000013" id="traverse-step-230" />
      <line x1="130.6423" y1="229.75989000000013" x2="117.9612" y2="232.56870000000012" id="traverse-step-231" />
      <line x1="117.9612" y1="232.56870000000012" x2="105.86674000000001" y2="231.1926800000001"
         id="traverse-step-232" />
      <line x1="105.86674000000001" y1="231.1926800000001" x2="104.42274" y2="225.2534000000001"
         id="traverse-step-233" />
      <line x1="104.42274" y1="225.2534000000001" x2="97.663013" y2="231.09135000000012" id="traverse-step-234" />
      <line x1="97.663013" y1="231.09135000000012" x2="97.683063" y2="239.6434300000001" id="traverse-step-235" />
      <line x1="97.683063" y1="239.6434300000001" x2="107.38761000000001" y2="239.6434300000001"
         id="traverse-step-236" />
      <line x1="107.38761000000001" y1="239.6434300000001" x2="97.66301800000001" y2="231.09135000000012"
         id="traverse-step-237" />
      <line x1="97.66301800000001" y1="231.09135000000012" x2="119.33723" y2="239.6434300000001"
         id="traverse-step-238" />
      <line x1="119.33723" y1="239.6434300000001" x2="124.76888000000001" y2="236.76917000000012"
         id="traverse-step-239" />
      <line x1="124.76888000000001" y1="236.76917000000012" x2="130.6423" y2="229.75989000000013"
         id="traverse-step-240" />
      <line x1="130.6423" y1="229.75989000000013" x2="124.54830000000001" y2="239.64343000000014"
         id="traverse-step-241" />
      <line x1="124.54830000000001" y1="239.64343000000014" x2="150.71665000000002" y2="228.17238000000015"
         id="traverse-step-242" />
      <line x1="150.71665000000002" y1="228.17238000000015" x2="151.4848" y2="225.66308000000015"
         id="traverse-step-243" />
      <line x1="151.4848" y1="225.66308000000015" x2="133.30522000000002" y2="231.65466000000015"
         id="traverse-step-244" />
      <line x1="133.30522000000002" y1="231.65466000000015" x2="124.49710000000002" y2="239.64343000000014"
         id="traverse-step-245" />
      <line x1="124.49710000000002" y1="239.64343000000014" x2="141.9085" y2="239.64343000000014"
         id="traverse-step-246" />
      <line x1="141.9085" y1="239.64343000000014" x2="148.30976" y2="230.11836000000014" id="traverse-step-247" />
      <line x1="148.30976" y1="230.11836000000014" x2="133.56126" y2="239.64343000000014" id="traverse-step-248" />
      <line x1="133.56126" y1="239.64343000000014" x2="162.69978" y2="239.64343000000014" id="traverse-step-249" />
      <line x1="162.69978" y1="239.64343000000014" x2="159.93444" y2="213.32146000000014" id="traverse-step-250" />
      <line x1="159.93444" y1="213.32146000000014" x2="168.02563" y2="223.00016000000014" id="traverse-step-251" />
      <line x1="168.02563" y1="223.00016000000014" x2="184.41285" y2="239.64343000000014" id="traverse-step-252" />
      <line x1="184.41285" y1="239.64343000000014" x2="193.27218" y2="239.64343000000014" id="traverse-step-253" />
      <line x1="193.27218" y1="239.64343000000014" x2="188.71448999999998" y2="226.89213000000012"
         id="traverse-step-254" />
      <line x1="188.71448999999998" y1="226.89213000000012" x2="185.12978999999999" y2="215.52349000000012"
         id="traverse-step-255" />
      <line x1="185.12978999999999" y1="215.52349000000012" x2="191.58226" y2="213.67993000000013"
         id="traverse-step-256" />
      <line x1="191.58226" y1="213.67993000000013" x2="199.87828" y2="239.64343000000014" id="traverse-step-257" />
      <line x1="199.87828" y1="239.64343000000014" x2="185.12978999999999" y2="215.52349000000015"
         id="traverse-step-258" />
      <line x1="185.12978999999999" y1="215.52349000000015" x2="165.46511999999998" y2="201.08226000000016"
         id="traverse-step-259" />
      <line x1="165.46511999999998" y1="201.08226000000016" x2="179.99324" y2="203.66278000000017"
         id="traverse-step-260" />
      <line x1="179.99324" y1="203.66278000000017" x2="179.70152" y2="193.81043000000017" id="traverse-step-261" />
      <line x1="179.70152" y1="193.81043000000017" x2="180.35424999999998" y2="185.85023000000018"
         id="traverse-step-262" />
      <line x1="180.35424999999998" y1="185.85023000000018" x2="163.72397999999998" y2="165.3376300000002"
         id="traverse-step-263" />
      <line x1="163.72397999999998" y1="165.3376300000002" x2="177.96038" y2="154.6859400000002"
         id="traverse-step-264" />
      <line x1="177.96038" y1="154.6859400000002" x2="180.35424999999998" y2="185.85023000000018"
         id="traverse-step-265" />
      <line x1="180.35424999999998" y1="185.85023000000018" x2="185.12978999999999" y2="215.52349000000018"
         id="traverse-step-266" />
      <line x1="185.12978999999999" y1="215.52349000000018" x2="185.02392999999998" y2="195.9594000000002"
         id="traverse-step-267" />
      <line x1="185.02392999999998" y1="195.9594000000002" x2="177.96038" y2="154.6859400000002"
         id="traverse-step-268" />
      <line x1="177.96038" y1="154.6859400000002" x2="190.92631999999998" y2="157.7930300000002"
         id="traverse-step-269" />
      <line x1="190.92631999999998" y1="157.7930300000002" x2="201.02918999999997" y2="192.4107200000002"
         id="traverse-step-270" />
      <line x1="201.02918999999997" y1="192.4107200000002" x2="195.26937999999998" y2="209.3782800000002"
         id="traverse-step-271" />
      <line x1="195.26937999999998" y1="209.3782800000002" x2="195.56133" y2="202.9481200000002"
         id="traverse-step-272" />
      <line x1="195.56133" y1="202.9481200000002" x2="190.92632" y2="157.7930300000002" id="traverse-step-273" />
      <line x1="190.92632" y1="157.7930300000002" x2="175.80569" y2="147.38479000000018" id="traverse-step-274" />
      <line x1="175.80569" y1="147.38479000000018" x2="177.96038" y2="154.6859400000002" id="traverse-step-275" />
      <line x1="177.96038" y1="154.6859400000002" x2="163.42171" y2="149.9659700000002" id="traverse-step-276" />
      <line x1="163.42171" y1="149.9659700000002" x2="153.84627999999998" y2="146.8573100000002"
         id="traverse-step-277" />
      <line x1="153.84627999999998" y1="146.8573100000002" x2="151.22872999999998" y2="152.4327000000002"
         id="traverse-step-278" />
      <line x1="151.22872999999998" y1="152.4327000000002" x2="163.42171" y2="149.9659700000002"
         id="traverse-step-279" />
      <line x1="163.42171" y1="149.9659700000002" x2="173.38613999999998" y2="149.1196500000002"
         id="traverse-step-280" />
      <line x1="173.38613999999998" y1="149.1196500000002" x2="150.76835" y2="141.3894500000002"
         id="traverse-step-281" />
      <line x1="150.76835" y1="141.3894500000002" x2="153.84628" y2="146.8573100000002" id="traverse-step-282" />
      <line x1="153.84628" y1="146.8573100000002" x2="138.56524000000002" y2="149.6817700000002"
         id="traverse-step-283" />
      <line x1="138.56524000000002" y1="149.6817700000002" x2="126.64790000000002" y2="152.4327000000002"
         id="traverse-step-284" />
      <line x1="126.64790000000002" y1="152.4327000000002" x2="135.92185" y2="145.8434000000002"
         id="traverse-step-285" />
      <line x1="135.92185" y1="145.8434000000002" x2="131.68516" y2="145.6261400000002" id="traverse-step-286" />
      <line x1="131.68516" y1="145.6261400000002" x2="126.64789999999999" y2="152.43270000000018"
         id="traverse-step-287" />
      <line x1="126.64789999999999" y1="152.43270000000018" x2="123.35664" y2="141.64293000000018"
         id="traverse-step-288" />
      <line x1="123.35664" y1="141.64293000000018" x2="131.68516" y2="145.6261400000002" id="traverse-step-289" />
      <line x1="131.68516" y1="145.6261400000002" x2="116.36792" y2="119.62665000000018" id="traverse-step-290" />
      <line x1="116.36792" y1="119.62665000000018" x2="114.15265" y2="112.07917000000018" id="traverse-step-291" />
      <line x1="114.15265" y1="112.07917000000018" x2="100.99166" y2="93.08023900000018" id="traverse-step-292" />
      <line x1="100.99166" y1="93.08023900000018" x2="103.09128" y2="84.11847800000018" id="traverse-step-293" />
      <line x1="103.09128" y1="84.11847800000018" x2="94.539191" y2="88.16406900000018" id="traverse-step-294" />
      <line x1="94.539191" y1="88.16406900000018" x2="94.641323" y2="102.35400000000018" id="traverse-step-295" />
      <line x1="94.641323" y1="102.35400000000018" x2="100.99166" y2="93.08023900000018" id="traverse-step-296" />
      <line x1="100.99166" y1="93.08023900000018" x2="100.53076999999999" y2="101.52990000000018"
         id="traverse-step-297" />
      <line x1="100.53076999999999" y1="101.52990000000018" x2="94.64132299999999" y2="102.35400000000018"
         id="traverse-step-298" />
      <line x1="94.64132299999999" y1="102.35400000000018" x2="99.91335799999999" y2="114.10039000000019"
         id="traverse-step-299" />
      <line x1="99.91335799999999" y1="114.10039000000019" x2="105.54936" y2="122.32118000000018"
         id="traverse-step-300" />
      <line x1="105.54936" y1="122.32118000000018" x2="100.53076999999999" y2="101.52990000000018"
         id="traverse-step-301" />
      <line x1="100.53076999999999" y1="101.52990000000018" x2="111.59214999999999" y2="114.94693000000018"
         id="traverse-step-302" />
      <line x1="111.59214999999999" y1="114.94693000000018" x2="108.46833" y2="85.85961700000018"
         id="traverse-step-303" />
      <line x1="108.46833" y1="85.85961700000018" x2="100.99166" y2="93.08023900000019" id="traverse-step-304" />
      <line x1="100.99166" y1="93.08023900000019" x2="94.539191" y2="88.1640690000002" id="traverse-step-305" />
      <line x1="94.539191" y1="88.1640690000002" x2="86.089532" y2="84.8866270000002" id="traverse-step-306" />
      <line x1="86.089532" y1="84.8866270000002" x2="80.405213" y2="83.81121800000021" id="traverse-step-307" />
      <line x1="80.405213" y1="83.81121800000021" x2="76.513248" y2="81.86523400000021" id="traverse-step-308" />
      <line x1="76.513248" y1="81.86523400000021" x2="70.524812" y2="80.48258000000021" id="traverse-step-309" />
      <line x1="70.524812" y1="80.48258000000021" x2="65.744963" y2="93.73579900000021" id="traverse-step-310" />
      <line x1="65.744963" y1="93.73579900000021" x2="73.566536" y2="92.57704600000021" id="traverse-step-311" />
      <line x1="73.566536" y1="92.57704600000021" x2="71.321454" y2="88.8835260000002" id="traverse-step-312" />
      <line x1="71.321454" y1="88.8835260000002" x2="65.744963" y2="93.7357990000002" id="traverse-step-313" />
      <line x1="65.744963" y1="93.7357990000002" x2="60.892693" y2="94.0254860000002" id="traverse-step-314" />
      <line x1="60.892693" y1="94.0254860000002" x2="63.400768" y2="81.7767390000002" id="traverse-step-315" />
      <line x1="63.400768" y1="81.7767390000002" x2="63.524376" y2="79.5280450000002" id="traverse-step-316" />
      <line x1="63.524376" y1="79.5280450000002" x2="67.807541" y2="76.8115020000002" id="traverse-step-317" />
      <line x1="67.807541" y1="76.8115020000002" x2="70.931355" y2="78.5877900000002" id="traverse-step-318" />
      <line x1="70.931355" y1="78.5877900000002" x2="70.524812" y2="80.4825800000002" id="traverse-step-319" />
      <line x1="70.524812" y1="80.4825800000002" x2="73.184597" y2="77.5123780000002" id="traverse-step-320" />
      <line x1="73.184597" y1="77.5123780000002" x2="86.448" y2="71.4695910000002" id="traverse-step-321" />
      <line x1="86.448" y1="71.4695910000002" x2="94.283141" y2="68.0897270000002" id="traverse-step-322" />
      <line x1="94.283141" y1="68.0897270000002" x2="84.502019" y2="74.6958250000002" id="traverse-step-323" />
      <line x1="84.502019" y1="74.6958250000002" x2="92.183527" y2="74.4397740000002" id="traverse-step-324" />
      <line x1="92.183527" y1="74.4397740000002" x2="96.66914299999999" y2="78.9979230000002" id="traverse-step-325" />
      <line x1="96.66914299999999" y1="78.9979230000002" x2="100.5075" y2="71.9729920000002" id="traverse-step-326" />
      <line x1="100.5075" y1="71.9729920000002" x2="92.183527" y2="74.4397740000002" id="traverse-step-327" />
      <line x1="92.183527" y1="74.4397740000002" x2="94.283141" y2="68.0897270000002" id="traverse-step-328" />
      <line x1="94.283141" y1="68.0897270000002" x2="100.5075" y2="71.97299200000019" id="traverse-step-329" />
      <line x1="100.5075" y1="71.97299200000019" x2="103.09127" y2="84.1184780000002" id="traverse-step-330" />
      <line x1="103.09127" y1="84.1184780000002" x2="86.08953199999999" y2="84.88662700000019" id="traverse-step-331" />
      <line x1="86.08953199999999" y1="84.88662700000019" x2="79.841905" y2="79.30473100000019"
         id="traverse-step-332" />
      <line x1="79.841905" y1="79.30473100000019" x2="84.297179" y2="76.69301900000019" id="traverse-step-333" />
      <line x1="84.297179" y1="76.69301900000019" x2="89.213343" y2="78.69021000000019" id="traverse-step-334" />
      <line x1="89.213343" y1="78.69021000000019" x2="79.841905" y2="79.30473100000019" id="traverse-step-335" />
      <line x1="79.841905" y1="79.30473100000019" x2="84.655649" y2="82.01886400000019" id="traverse-step-336" />
      <line x1="84.655649" y1="82.01886400000019" x2="89.213343" y2="78.69021000000019" id="traverse-step-337" />
      <line x1="89.213343" y1="78.69021000000019" x2="86.08953199999999" y2="84.88662700000019"
         id="traverse-step-338" />
      <line x1="86.08953199999999" y1="84.88662700000019" x2="93.489386" y2="80.84103400000019"
         id="traverse-step-339" />
      <line x1="93.489386" y1="80.84103400000019" x2="89.213343" y2="78.69021000000019" id="traverse-step-340" />
      <line x1="89.213343" y1="78.69021000000019" x2="96.66914299999999" y2="78.9979230000002" id="traverse-step-341" />
      <line x1="96.66914299999999" y1="78.9979230000002" x2="96.61320299999998" y2="83.70879000000019"
         id="traverse-step-342" />
      <line x1="96.61320299999998" y1="83.70879000000019" x2="93.48938999999999" y2="80.84103400000019"
         id="traverse-step-343" />
      <line x1="93.48938999999999" y1="80.84103400000019" x2="96.66914699999998" y2="78.9979230000002"
         id="traverse-step-344" />
      <line x1="96.66914699999998" y1="78.9979230000002" x2="100.50750999999998" y2="71.9729920000002"
         id="traverse-step-345" />
      <line x1="100.50750999999998" y1="71.9729920000002" x2="107.64896999999998" y2="64.6586470000002"
         id="traverse-step-346" />
      <line x1="107.64896999999998" y1="64.6586470000002" x2="97.39336199999998" y2="57.886925000000204"
         id="traverse-step-347" />
      <line x1="97.39336199999998" y1="57.886925000000204" x2="94.28314499999998" y2="68.08972700000021"
         id="traverse-step-348" />
      <line x1="94.28314499999998" y1="68.08972700000021" x2="91.83184399999998" y2="65.99538000000021"
         id="traverse-step-349" />
      <line x1="91.83184399999998" y1="65.99538000000021" x2="87.88188699999998" y2="65.29877200000021"
         id="traverse-step-350" />
      <line x1="87.88188699999998" y1="65.29877200000021" x2="86.44800399999998" y2="71.46959100000021"
         id="traverse-step-351" />
      <line x1="86.44800399999998" y1="71.46959100000021" x2="86.31997999999999" y2="62.40540500000021"
         id="traverse-step-352" />
      <line x1="86.31997999999999" y1="62.40540500000021" x2="97.39336199999998" y2="57.886925000000204"
         id="traverse-step-353" />
      <line x1="97.39336199999998" y1="57.886925000000204" x2="107.40569999999998" y2="51.459475000000204"
         id="traverse-step-354" />
      <line x1="107.40569999999998" y1="51.459475000000204" x2="107.64896999999998" y2="64.6586470000002"
         id="traverse-step-355" />
      <line x1="107.64896999999998" y1="64.6586470000002" x2="116.53390999999998" y2="55.5688630000002"
         id="traverse-step-356" />
      <line x1="116.53390999999998" y1="55.5688630000002" x2="117.55635999999998" y2="62.0269500000002"
         id="traverse-step-357" />
      <line x1="117.55635999999998" y1="62.0269500000002" x2="119.04320999999999" y2="71.4183780000002"
         id="traverse-step-358" />
      <line x1="119.04320999999999" y1="71.4183780000002" x2="115.57126999999998" y2="73.7835410000002"
         id="traverse-step-359" />
      <line x1="115.57126999999998" y1="73.7835410000002" x2="117.88877999999998" y2="76.8614760000002"
         id="traverse-step-360" />
      <line x1="117.88877999999998" y1="76.8614760000002" x2="123.97222999999998" y2="69.43822300000019"
         id="traverse-step-361" />
      <line x1="123.97222999999998" y1="69.43822300000019" x2="127.73816999999998" y2="69.90896700000019"
         id="traverse-step-362" />
      <line x1="127.73816999999998" y1="69.90896700000019" x2="130.01945999999998" y2="72.22647100000019"
         id="traverse-step-363" />
      <line x1="130.01945999999998" y1="72.22647100000019" x2="123.97222999999998" y2="69.43822300000019"
         id="traverse-step-364" />
      <line x1="123.97222999999998" y1="69.43822300000019" x2="119.08373999999998" y2="71.4298290000002"
         id="traverse-step-365" />
      <line x1="119.08373999999998" y1="71.4298290000002" x2="114.44600999999997" y2="68.3129710000002"
         id="traverse-step-366" />
      <line x1="114.44600999999997" y1="68.3129710000002" x2="115.58937999999998" y2="73.7292250000002"
         id="traverse-step-367" />
      <line x1="115.58937999999998" y1="73.7292250000002" x2="107.64896999999998" y2="64.6586470000002"
         id="traverse-step-368" />
      <line x1="107.64896999999998" y1="64.6586470000002" x2="106.98926999999998" y2="77.0787420000002"
         id="traverse-step-369" />
      <line x1="106.98926999999998" y1="77.0787420000002" x2="115.42642999999998" y2="87.9058250000002"
         id="traverse-step-370" />
      <line x1="115.42642999999998" y1="87.9058250000002" x2="112.16743999999998" y2="94.53243300000021"
         id="traverse-step-371" />
      <line x1="112.16743999999998" y1="94.53243300000021" x2="116.04201999999998" y2="99.02259500000021"
         id="traverse-step-372" />
      <line x1="116.04201999999998" y1="99.02259500000021" x2="117.72798999999998" y2="97.71891400000021"
         id="traverse-step-373" />
      <line x1="117.72798999999998" y1="97.71891400000021" x2="125.23960999999997" y2="91.88903200000021"
         id="traverse-step-374" />
      <line x1="125.23960999999997" y1="91.88903200000021" x2="130.01945999999998" y2="72.22647100000022"
         id="traverse-step-375" />
      <line x1="130.01945999999998" y1="72.22647100000022" x2="127.48468999999999" y2="72.73342300000022"
         id="traverse-step-376" />
      <line x1="127.48468999999999" y1="72.73342300000022" x2="125.23960999999998" y2="91.88903200000021"
         id="traverse-step-377" />
      <line x1="125.23960999999998" y1="91.88903200000021" x2="119.51826999999999" y2="91.65366100000021"
         id="traverse-step-378" />
      <line x1="119.51826999999999" y1="91.65366100000021" x2="117.72798999999999" y2="97.71891400000021"
         id="traverse-step-379" />
      <line x1="117.72798999999999" y1="97.71891400000021" x2="116.04202" y2="93.19262800000021"
         id="traverse-step-380" />
      <line x1="116.04202" y1="93.19262800000021" x2="114.23146999999999" y2="90.76649200000021"
         id="traverse-step-381" />
      <line x1="114.23146999999999" y1="90.76649200000021" x2="122.61139999999999" y2="88.2628190000002"
         id="traverse-step-382" />
      <line x1="122.61139999999999" y1="88.2628190000002" x2="121.96251999999998" y2="81.0257370000002"
         id="traverse-step-383" />
      <line x1="121.96251999999998" y1="81.0257370000002" x2="126.36214999999999" y2="77.0063200000002"
         id="traverse-step-384" />
      <line x1="126.36214999999999" y1="77.0063200000002" x2="122.61139999999999" y2="88.2628190000002"
         id="traverse-step-385" />
      <line x1="122.61139999999999" y1="88.2628190000002" x2="119.51826999999999" y2="91.65366100000021"
         id="traverse-step-386" />
      <line x1="119.51826999999999" y1="91.65366100000021" x2="116.04202" y2="93.19262800000021"
         id="traverse-step-387" />
      <line x1="116.04202" y1="93.19262800000021" x2="112.16744" y2="94.53243300000021" id="traverse-step-388" />
      <line x1="112.16744" y1="94.53243300000021" x2="110.3569" y2="81.27921600000022" id="traverse-step-389" />
      <line x1="110.3569" y1="81.27921600000022" x2="115.58937999999999" y2="73.72922500000021"
         id="traverse-step-390" />
      <line x1="115.58937999999999" y1="73.72922500000021" x2="113.69174999999998" y2="84.47694100000021"
         id="traverse-step-391" />
      <line x1="113.69174999999998" y1="84.47694100000021" x2="116.92236999999999" y2="78.61501600000021"
         id="traverse-step-392" />
      <line x1="116.92236999999999" y1="78.61501600000021" x2="117.88877999999998" y2="76.86147600000021"
         id="traverse-step-393" />
      <line x1="117.88877999999998" y1="76.86147600000021" x2="123.15747999999998" y2="71.73762200000021"
         id="traverse-step-394" />
      <line x1="123.15747999999998" y1="71.73762200000021" x2="127.48468999999997" y2="72.73342300000022"
         id="traverse-step-395" />
      <line x1="127.48468999999997" y1="72.73342300000022" x2="126.36214999999997" y2="77.00632000000022"
         id="traverse-step-396" />
      <line x1="126.36214999999997" y1="77.00632000000022" x2="123.48337999999997" y2="76.33641600000021"
         id="traverse-step-397" />
      <line x1="123.48337999999997" y1="76.33641600000021" x2="116.92236999999997" y2="78.61501600000021"
         id="traverse-step-398" />
      <line x1="116.92236999999997" y1="78.61501600000021" x2="121.96251999999997" y2="81.0257370000002"
         id="traverse-step-399" />
      <line x1="121.96251999999997" y1="81.0257370000002" x2="117.09213999999997" y2="81.8404850000002"
         id="traverse-step-400" />
      <line x1="117.09213999999997" y1="81.8404850000002" x2="122.61139999999997" y2="88.2628190000002"
         id="traverse-step-401" />
      <line x1="122.61139999999997" y1="88.2628190000002" x2="113.69174999999997" y2="84.47694100000021"
         id="traverse-step-402" />
      <line x1="113.69174999999997" y1="84.47694100000021" x2="110.35689999999997" y2="81.32752400000021"
         id="traverse-step-403" />
      <line x1="110.35689999999997" y1="81.32752400000021" x2="106.98926999999996" y2="77.0787420000002"
         id="traverse-step-404" />
      <line x1="106.98926999999996" y1="77.0787420000002" x2="101.88351999999996" y2="70.6693980000002"
         id="traverse-step-405" />
      <line x1="101.88351999999996" y1="70.6693980000002" x2="97.39336199999997" y2="57.886925000000204"
         id="traverse-step-406" />
      <line x1="97.39336199999997" y1="57.886925000000204" x2="98.44347999999997" y2="52.03885100000021"
         id="traverse-step-407" />
      <line x1="98.44347999999997" y1="52.03885100000021" x2="107.40569999999997" y2="51.459475000000204"
         id="traverse-step-408" />
      <line x1="107.40569999999997" y1="51.459475000000204" x2="116.53390999999996" y2="55.568863000000206"
         id="traverse-step-409" />
      <line x1="116.53390999999996" y1="55.568863000000206" x2="111.00868999999996" y2="48.34533100000021"
         id="traverse-step-410" />
      <line x1="111.00868999999996" y1="48.34533100000021" x2="107.40569999999995" y2="51.45947500000021"
         id="traverse-step-411" />
      <line x1="107.40569999999995" y1="51.45947500000021" x2="97.61062699999995" y2="40.54186400000021"
         id="traverse-step-412" />
      <line x1="97.61062699999995" y1="40.54186400000021" x2="111.00868999999994" y2="48.34533100000021"
         id="traverse-step-413" />
      <line x1="111.00868999999994" y1="48.34533100000021" x2="94.69568599999994" y2="44.32588600000021"
         id="traverse-step-414" />
      <line x1="94.69568599999994" y1="44.32588600000021" x2="84.64709699999995" y2="38.98479200000021"
         id="traverse-step-415" />
      <line x1="84.64709699999995" y1="38.98479200000021" x2="86.99535299999995" y2="49.18135500000021"
         id="traverse-step-416" />
      <line x1="86.99535299999995" y1="49.18135500000021" x2="75.66677299999995" y2="44.88718200000021"
         id="traverse-step-417" />
      <line x1="75.66677299999995" y1="44.88718200000021" x2="93.60917999999995" y2="47.47642100000021"
         id="traverse-step-418" />
      <line x1="93.60917999999995" y1="47.47642100000021" x2="107.40569999999995" y2="51.45947500000021"
         id="traverse-step-419" />
      <line x1="107.40569999999995" y1="51.45947500000021" x2="94.69568599999995" y2="44.32588600000021"
         id="traverse-step-420" />
      <line x1="94.69568599999995" y1="44.32588600000021" x2="97.61062699999995" y2="40.54186400000021"
         id="traverse-step-421" />
      <line x1="97.61062699999995" y1="40.54186400000021" x2="84.64709699999995" y2="38.98479200000021"
         id="traverse-step-422" />
      <line x1="84.64709699999995" y1="38.98479200000021" x2="75.66677299999995" y2="44.88718200000021"
         id="traverse-step-423" />
      <line x1="75.66677299999995" y1="44.88718200000021" x2="68.24352299999995" y2="44.85097200000021"
         id="traverse-step-424" />
      <line x1="68.24352299999995" y1="44.85097200000021" x2="84.64709699999995" y2="38.98479300000021"
         id="traverse-step-425" />
      <line x1="84.64709699999995" y1="38.98479300000021" x2="93.60917999999995" y2="47.47642200000021"
         id="traverse-step-426" />
      <line x1="93.60917999999995" y1="47.47642200000021" x2="98.44347999999995" y2="52.05695700000021"
         id="traverse-step-427" />
      <line x1="98.44347999999995" y1="52.05695700000021" x2="92.34701099999995" y2="52.65510200000021"
         id="traverse-step-428" />
      <line x1="92.34701099999995" y1="52.65510200000021" x2="88.84757099999996" y2="52.998443000000215"
         id="traverse-step-429" />
      <line x1="88.84757099999996" y1="52.998443000000215" x2="86.31997999999996" y2="62.40540600000021"
         id="traverse-step-430" />
      <line x1="86.31997999999996" y1="62.40540600000021" x2="73.18460099999996" y2="77.51237900000021"
         id="traverse-step-431" />
      <line x1="73.18460099999996" y1="77.51237900000021" x2="70.34375899999996" y2="67.62767500000021"
         id="traverse-step-432" />
      <line x1="70.34375899999996" y1="67.62767500000021" x2="75.66677299999996" y2="44.887183000000206"
         id="traverse-step-433" />
      <line x1="75.66677299999996" y1="44.887183000000206" x2="82.32959299999996" y2="51.51379200000021"
         id="traverse-step-434" />
      <line x1="82.32959299999996" y1="51.51379200000021" x2="88.84757099999996" y2="52.99844300000021"
         id="traverse-step-435" />
      <line x1="88.84757099999996" y1="52.99844300000021" x2="70.34375899999996" y2="67.62767500000021"
         id="traverse-step-436" />
      <line x1="70.34375899999996" y1="67.62767500000021" x2="86.31997999999996" y2="62.40540600000021"
         id="traverse-step-437" />
      <line x1="86.31997999999996" y1="62.40540600000021" x2="87.88188699999996" y2="65.29877300000021"
         id="traverse-step-438" />
      <line x1="87.88188699999996" y1="65.29877300000021" x2="97.39336199999997" y2="57.88692600000021"
         id="traverse-step-439" />
      <line x1="97.39336199999997" y1="57.88692600000021" x2="92.34701099999997" y2="52.65510200000021"
         id="traverse-step-440" />
      <line x1="92.34701099999997" y1="52.65510200000021" x2="86.99535299999997" y2="49.181356000000214"
         id="traverse-step-441" />
      <line x1="86.99535299999997" y1="49.181356000000214" x2="82.32959299999996" y2="51.513792000000215"
         id="traverse-step-442" />
      <line x1="82.32959299999996" y1="51.513792000000215" x2="70.34375899999996" y2="67.62767500000021"
         id="traverse-step-443" />
      <line x1="70.34375899999996" y1="67.62767500000021" x2="65.27422099999997" y2="67.62767500000021"
         id="traverse-step-444" />
      <line x1="65.27422099999997" y1="67.62767500000021" x2="75.66677299999996" y2="44.887183000000206"
         id="traverse-step-445" />
      <line x1="75.66677299999996" y1="44.887183000000206" x2="61.67859699999997" y2="50.795561000000205"
         id="traverse-step-446" />
      <line x1="61.67859699999997" y1="50.795561000000205" x2="57.82157999999997" y2="52.7523090000002"
         id="traverse-step-447" />
      <line x1="57.82157999999997" y1="52.7523090000002" x2="56.548182999999966" y2="57.4802590000002"
         id="traverse-step-448" />
      <line x1="56.548182999999966" y1="57.4802590000002" x2="55.23547099999997" y2="62.3541960000002"
         id="traverse-step-449" />
      <line x1="55.23547099999997" y1="62.3541960000002" x2="62.71214099999997" y2="77.7684270000002"
         id="traverse-step-450" />
      <line x1="62.71214099999997" y1="77.7684270000002" x2="65.27422099999997" y2="67.6276750000002"
         id="traverse-step-451" />
      <line x1="65.27422099999997" y1="67.6276750000002" x2="67.47467799999997" y2="74.50052100000019"
         id="traverse-step-452" />
      <line x1="67.47467799999997" y1="74.50052100000019" x2="70.34375899999996" y2="67.6276750000002"
         id="traverse-step-453" />
      <line x1="70.34375899999996" y1="67.6276750000002" x2="73.18460099999996" y2="77.5123790000002"
         id="traverse-step-454" />
      <line x1="73.18460099999996" y1="77.5123790000002" x2="67.47467799999995" y2="74.50052100000019"
         id="traverse-step-455" />
      <line x1="67.47467799999995" y1="74.50052100000019" x2="62.71214399999995" y2="77.76842700000019"
         id="traverse-step-456" />
      <line x1="62.71214399999995" y1="77.76842700000019" x2="53.36630699999995" y2="73.72283100000018"
         id="traverse-step-457" />
      <line x1="53.36630699999995" y1="73.72283100000018" x2="56.79738099999995" y2="65.78527000000018"
         id="traverse-step-458" />
      <line x1="56.79738099999995" y1="65.78527000000018" x2="65.27422599999996" y2="67.62767500000018"
         id="traverse-step-459" />
      <line x1="65.27422599999996" y1="67.62767500000018" x2="62.307823999999954" y2="53.771023000000184"
         id="traverse-step-460" />
      <line x1="62.307823999999954" y1="53.771023000000184" x2="61.678598999999956" y2="50.795561000000184"
         id="traverse-step-461" />
      <line x1="61.678598999999956" y1="50.795561000000184" x2="68.24352299999995" y2="44.85097200000018"
         id="traverse-step-462" />
      <line x1="68.24352299999995" y1="44.85097200000018" x2="62.307820999999954" y2="53.771023000000184"
         id="traverse-step-463" />
      <line x1="62.307820999999954" y1="53.771023000000184" x2="56.54818299999995" y2="57.48025900000018"
         id="traverse-step-464" />
      <line x1="56.54818299999995" y1="57.48025900000018" x2="56.79737799999995" y2="65.78527000000018"
         id="traverse-step-465" />
      <line x1="56.79737799999995" y1="65.78527000000018" x2="49.21829099999995" y2="71.70003300000018"
         id="traverse-step-466" />
      <line x1="49.21829099999995" y1="71.70003300000018" x2="55.235473999999954" y2="62.35419600000017"
         id="traverse-step-467" />
      <line x1="55.235473999999954" y1="62.35419600000017" x2="53.366306999999956" y2="73.72283100000017"
         id="traverse-step-468" />
      <line x1="53.366306999999956" y1="73.72283100000017" x2="49.21829399999996" y2="71.70003300000018"
         id="traverse-step-469" />
      <line x1="49.21829399999996" y1="71.70003300000018" x2="50.52414699999996" y2="78.34453800000017"
         id="traverse-step-470" />
      <line x1="50.52414699999996" y1="78.34453800000017" x2="56.59254299999996" y2="76.91065300000017"
         id="traverse-step-471" />
      <line x1="56.59254299999996" y1="76.91065300000017" x2="49.21829399999996" y2="71.70003300000016"
         id="traverse-step-472" />
      <line x1="49.21829399999996" y1="71.70003300000016" x2="54.55694199999996" y2="83.47834700000016"
         id="traverse-step-473" />
      <line x1="54.55694199999996" y1="83.47834700000016" x2="59.607205999999955" y2="86.22201500000016"
         id="traverse-step-474" />
      <line x1="59.607205999999955" y1="86.22201500000016" x2="63.40077499999995" y2="81.77674000000016"
         id="traverse-step-475" />
      <line x1="63.40077499999995" y1="81.77674000000016" x2="63.52438299999995" y2="79.52804600000016"
         id="traverse-step-476" />
      <line x1="63.52438299999995" y1="79.52804600000016" x2="59.40068499999995" y2="77.74941100000017"
         id="traverse-step-477" />
      <line x1="59.40068499999995" y1="77.74941100000017" x2="56.40088199999995" y2="79.55638600000016"
         id="traverse-step-478" />
      <line x1="56.40088199999995" y1="79.55638600000016" x2="59.54992299999995" y2="81.85242600000016"
         id="traverse-step-479" />
      <line x1="59.54992299999995" y1="81.85242600000016" x2="63.52438299999995" y2="79.52804600000016"
         id="traverse-step-480" />
      <line x1="63.52438299999995" y1="79.52804600000016" x2="56.40088199999995" y2="79.55637600000016"
         id="traverse-step-481" />
      <line x1="56.40088199999995" y1="79.55637600000016" x2="54.55694199999995" y2="83.47833900000016"
         id="traverse-step-482" />
      <line x1="54.55694199999995" y1="83.47833900000016" x2="50.75459399999995" y2="88.33049100000017"
         id="traverse-step-483" />
      <line x1="50.75459399999995" y1="88.33049100000017" x2="53.44581399999995" y2="95.83561400000016"
         id="traverse-step-484" />
      <line x1="53.44581399999995" y1="95.83561400000016" x2="55.80505299999995" y2="96.92235300000016"
         id="traverse-step-485" />
      <line x1="55.80505299999995" y1="96.92235300000016" x2="55.978018999999954" y2="91.41589700000016"
         id="traverse-step-486" />
      <line x1="55.978018999999954" y1="91.41589700000016" x2="59.607205999999955" y2="86.22200800000016"
         id="traverse-step-487" />
      <line x1="59.607205999999955" y1="86.22200800000016" x2="50.754593999999955" y2="88.33049100000017"
         id="traverse-step-488" />
      <line x1="50.754593999999955" y1="88.33049100000017" x2="55.978018999999954" y2="91.41589700000017"
         id="traverse-step-489" />
      <line x1="55.978018999999954" y1="91.41589700000017" x2="53.445813999999956" y2="95.83561400000018"
         id="traverse-step-490" />
      <line x1="53.445813999999956" y1="95.83561400000018" x2="57.296678999999955" y2="101.77313000000018"
         id="traverse-step-491" />
      <line x1="57.296678999999955" y1="101.77313000000018" x2="54.37471799999995" y2="119.11969000000018"
         id="traverse-step-492" />
      <line x1="54.37471799999995" y1="119.11969000000018" x2="55.95921499999995" y2="120.69031000000018"
         id="traverse-step-493" />
      <line x1="55.95921499999995" y1="120.69031000000018" x2="54.70061899999995" y2="129.1501300000002"
         id="traverse-step-494" />
      <line x1="54.70061899999995" y1="129.1501300000002" x2="57.81476199999995" y2="129.4398100000002"
         id="traverse-step-495" />
      <line x1="57.81476199999995" y1="129.4398100000002" x2="57.452652999999955" y2="139.7599500000002"
         id="traverse-step-496" />
      <line x1="57.452652999999955" y1="139.7599500000002" x2="48.580962999999954" y2="147.2918300000002"
         id="traverse-step-497" />
      <line x1="48.580962999999954" y1="147.2918300000002" x2="57.162965999999955" y2="144.9381200000002"
         id="traverse-step-498" />
      <line x1="57.162965999999955" y1="144.9381200000002" x2="60.42195299999995" y2="131.0331000000002"
         id="traverse-step-499" />
      <line x1="60.42195299999995" y1="131.0331000000002" x2="58.140662999999954" y2="124.62375000000019"
         id="traverse-step-500" />
      <line x1="58.140662999999954" y1="124.62375000000019" x2="54.70061899999995" y2="129.1501300000002"
         id="traverse-step-501" />
      <line x1="54.70061899999995" y1="129.1501300000002" x2="59.516677999999956" y2="117.20050000000019"
         id="traverse-step-502" />
      <line x1="59.516677999999956" y1="117.20050000000019" x2="60.13226599999996" y2="111.8412800000002"
         id="traverse-step-503" />
      <line x1="60.13226599999996" y1="111.8412800000002" x2="55.95921499999996" y2="120.6903100000002"
         id="traverse-step-504" />
      <line x1="55.95921499999996" y1="120.6903100000002" x2="57.924002999999956" y2="110.3380100000002"
         id="traverse-step-505" />
      <line x1="57.924002999999956" y1="110.3380100000002" x2="60.13226599999996" y2="111.8412800000002"
         id="traverse-step-506" />
      <line x1="60.13226599999996" y1="111.8412800000002" x2="65.23424199999995" y2="111.9511400000002"
         id="traverse-step-507" />
      <line x1="65.23424199999995" y1="111.9511400000002" x2="71.81472899999996" y2="111.7975000000002"
         id="traverse-step-508" />
      <line x1="71.81472899999996" y1="111.7975000000002" x2="75.82191699999996" y2="111.8999200000002"
         id="traverse-step-509" />
      <line x1="75.82191699999996" y1="111.8999200000002" x2="81.53183699999995" y2="111.64387000000019"
         id="traverse-step-510" />
      <line x1="81.53183699999995" y1="111.64387000000019" x2="85.44373899999995" y2="111.37053000000019"
         id="traverse-step-511" />
      <line x1="85.44373899999995" y1="111.37053000000019" x2="91.12886199999996" y2="114.75626000000018"
         id="traverse-step-512" />
      <line x1="91.12886199999996" y1="114.75626000000018" x2="91.40044599999996" y2="110.93600000000018"
         id="traverse-step-513" />
      <line x1="91.40044599999996" y1="110.93600000000018" x2="79.55945299999996" y2="104.78014000000017"
         id="traverse-step-514" />
      <line x1="79.55945299999996" y1="104.78014000000017" x2="71.46906599999997" y2="103.93675000000017"
         id="traverse-step-515" />
      <line x1="71.46906599999997" y1="103.93675000000017" x2="68.35805099999997" y2="105.52427000000017"
         id="traverse-step-516" />
      <line x1="68.35805099999997" y1="105.52427000000017" x2="65.13181699999997" y2="104.18000000000018"
         id="traverse-step-517" />
      <line x1="65.13181699999997" y1="104.18000000000018" x2="60.25900099999997" y2="105.57677000000018"
         id="traverse-step-518" />
      <line x1="60.25900099999997" y1="105.57677000000018" x2="57.92400299999997" y2="110.33801000000018"
         id="traverse-step-519" />
      <line x1="57.92400299999997" y1="110.33801000000018" x2="60.13226299999997" y2="111.84128000000018"
         id="traverse-step-520" />
      <line x1="60.13226299999997" y1="111.84128000000018" x2="62.15755299999997" y2="109.34957000000018"
         id="traverse-step-521" />
      <line x1="62.15755299999997" y1="109.34957000000018" x2="67.06666399999997" y2="108.31070000000018"
         id="traverse-step-522" />
      <line x1="67.06666399999997" y1="108.31070000000018" x2="70.36186399999997" y2="108.20207000000018"
         id="traverse-step-523" />
      <line x1="70.36186399999997" y1="108.20207000000018" x2="74.74339399999997" y2="108.20207000000018"
         id="traverse-step-524" />
      <line x1="74.74339399999997" y1="108.20207000000018" x2="79.77672099999997" y2="108.63660000000017"
         id="traverse-step-525" />
      <line x1="79.77672099999997" y1="108.63660000000017" x2="85.44373899999997" y2="111.37053000000017"
         id="traverse-step-526" />
      <line x1="85.44373899999997" y1="111.37053000000017" x2="81.53183699999997" y2="111.64387000000018"
         id="traverse-step-527" />
      <line x1="81.53183699999997" y1="111.64387000000018" x2="79.77672099999997" y2="108.63660000000017"
         id="traverse-step-528" />
      <line x1="79.77672099999997" y1="108.63660000000017" x2="79.55945299999996" y2="104.78014000000017"
         id="traverse-step-529" />
      <line x1="79.55945299999996" y1="104.78014000000017" x2="79.89311599999996" y2="95.47102600000018"
         id="traverse-step-530" />
      <line x1="79.89311599999996" y1="95.47102600000018" x2="91.40044599999996" y2="110.93600000000018"
         id="traverse-step-531" />
      <line x1="91.40044599999996" y1="110.93600000000018" x2="93.32134199999996" y2="112.80060000000017"
         id="traverse-step-532" />
      <line x1="93.32134199999996" y1="112.80060000000017" x2="96.58759399999995" y2="115.97112000000017"
         id="traverse-step-533" />
      <line x1="96.58759399999995" y1="115.97112000000017" x2="99.91336199999995" y2="114.10039000000017"
         id="traverse-step-534" />
      <line x1="99.91336199999995" y1="114.10039000000017" x2="102.74829999999994" y2="120.45029000000018"
         id="traverse-step-535" />
      <line x1="102.74829999999994" y1="120.45029000000018" x2="106.37368999999994" y2="128.57076000000018"
         id="traverse-step-536" />
      <line x1="106.37368999999994" y1="128.57076000000018" x2="102.57153999999994" y2="128.64316000000017"
         id="traverse-step-537" />
      <line x1="102.57153999999994" y1="128.64316000000017" x2="102.74829999999994" y2="120.45027000000016"
         id="traverse-step-538" />
      <line x1="102.74829999999994" y1="120.45027000000016" x2="96.58759999999994" y2="115.97110000000016"
         id="traverse-step-539" />
      <line x1="96.58759999999994" y1="115.97110000000016" x2="103.69407999999994" y2="132.73500000000016"
         id="traverse-step-540" />
      <line x1="103.69407999999994" y1="132.73500000000016" x2="102.29975999999995" y2="137.17470000000014"
         id="traverse-step-541" />
      <line x1="102.29975999999995" y1="137.17470000000014" x2="96.58759999999995" y2="115.97110000000015"
         id="traverse-step-542" />
      <line x1="96.58759999999995" y1="115.97110000000015" x2="93.32134499999995" y2="112.80058000000015"
         id="traverse-step-543" />
      <line x1="93.32134499999995" y1="112.80058000000015" x2="93.51499899999995" y2="128.59438000000014"
         id="traverse-step-544" />
      <line x1="93.51499899999995" y1="128.59438000000014" x2="99.52981899999995" y2="133.09711000000016"
         id="traverse-step-545" />
      <line x1="99.52981899999995" y1="133.09711000000016" x2="96.58760199999995" y2="115.97110000000015"
         id="traverse-step-546" />
      <line x1="96.58760199999995" y1="115.97110000000015" x2="91.23749699999995" y2="100.47100000000015"
         id="traverse-step-547" />
      <line x1="91.23749699999995" y1="100.47100000000015" x2="94.64132999999995" y2="102.35398000000015"
         id="traverse-step-548" />
      <line x1="94.64132999999995" y1="102.35398000000015" x2="88.19577599999995" y2="92.61322000000015"
         id="traverse-step-549" />
      <line x1="88.19577599999995" y1="92.61322000000015" x2="80.40521999999996" y2="83.81119200000015"
         id="traverse-step-550" />
      <line x1="80.40521999999996" y1="83.81119200000015" x2="86.02311799999995" y2="98.80529800000015"
         id="traverse-step-551" />
      <line x1="86.02311799999995" y1="98.80529800000015" x2="79.89311599999995" y2="95.47101100000015"
         id="traverse-step-552" />
      <line x1="79.89311599999995" y1="95.47101100000015" x2="79.89311599999995" y2="95.47101400000015"
         id="traverse-step-553" />
      <line x1="79.89311599999995" y1="95.47101400000015" x2="79.10103299999994" y2="92.59004800000015"
         id="traverse-step-554" />
      <line x1="79.10103299999994" y1="92.59004800000015" x2="73.56653999999995" y2="92.57700800000015"
         id="traverse-step-555" />
      <line x1="73.56653999999995" y1="92.57700800000015" x2="79.10103299999994" y2="92.59004800000015"
         id="traverse-step-556" />
      <line x1="79.10103299999994" y1="92.59004800000015" x2="78.63847299999995" y2="90.08441500000015"
         id="traverse-step-557" />
      <line x1="78.63847299999995" y1="90.08441500000015" x2="76.38522799999994" y2="88.36887800000015"
         id="traverse-step-558" />
      <line x1="76.38522799999994" y1="88.36887800000015" x2="71.32146099999994" y2="88.88350500000016"
         id="traverse-step-559" />
      <line x1="71.32146099999994" y1="88.88350500000016" x2="73.33823099999994" y2="85.75716500000016"
         id="traverse-step-560" />
      <line x1="73.33823099999994" y1="85.75716500000016" x2="68.60130099999994" y2="85.47551100000015"
         id="traverse-step-561" />
      <line x1="68.60130099999994" y1="85.47551100000015" x2="76.51325199999994" y2="81.86521000000015"
         id="traverse-step-562" />
      <line x1="76.51325199999994" y1="81.86521000000015" x2="78.63847299999993" y2="90.08441500000015"
         id="traverse-step-563" />
      <line x1="78.63847299999993" y1="90.08441500000015" x2="79.10103299999993" y2="92.59004800000015"
         id="traverse-step-564" />
      <line x1="79.10103299999993" y1="92.59004800000015" x2="79.89311599999994" y2="95.47101100000015"
         id="traverse-step-565" />
      <line x1="79.89311599999994" y1="95.47101100000015" x2="71.46906399999993" y2="103.93674000000014"
         id="traverse-step-566" />
      <line x1="71.46906399999993" y1="103.93674000000014" x2="69.70231599999993" y2="99.30222500000013"
         id="traverse-step-567" />
      <line x1="69.70231599999993" y1="99.30222500000013" x2="79.89311599999992" y2="95.47101100000013"
         id="traverse-step-568" />
      <line x1="79.89311599999992" y1="95.47101100000013" x2="67.48309499999992" y2="99.05878000000013"
         id="traverse-step-569" />
      <line x1="67.48309499999992" y1="99.05878000000013" x2="60.96511899999992" y2="96.08948000000012"
         id="traverse-step-570" />
      <line x1="60.96511899999992" y1="96.08948000000012" x2="60.89269899999992" y2="94.02546500000012"
         id="traverse-step-571" />
      <line x1="60.89269899999992" y1="94.02546500000012" x2="55.80505299999992" y2="96.92233800000012"
         id="traverse-step-572" />
      <line x1="55.80505299999992" y1="96.92233800000012" x2="58.08634799999992" y2="99.85542100000012"
         id="traverse-step-573" />
      <line x1="58.08634799999992" y1="99.85542100000012" x2="60.965120999999925" y2="96.08948000000012"
         id="traverse-step-574" />
      <line x1="60.965120999999925" y1="96.08948000000012" x2="60.25900599999993" y2="105.57676000000012"
         id="traverse-step-575" />
      <line x1="60.25900599999993" y1="105.57676000000012" x2="67.06667199999993" y2="108.31069000000012"
         id="traverse-step-576" />
      <line x1="67.06667199999993" y1="108.31069000000012" x2="65.23424199999992" y2="111.95112000000012"
         id="traverse-step-577" />
      <line x1="65.23424199999992" y1="111.95112000000012" x2="61.309123999999926" y2="125.34795000000011"
         id="traverse-step-578" />
      <line x1="61.309123999999926" y1="125.34795000000011" x2="68.20731699999993" y2="113.57938000000011"
         id="traverse-step-579" />
      <line x1="68.20731699999993" y1="113.57938000000011" x2="70.99556199999994" y2="113.65178000000012"
         id="traverse-step-580" />
      <line x1="70.99556199999994" y1="113.65178000000012" x2="69.85595099999993" y2="175.7332300000001"
         id="traverse-step-581" />
      <line x1="69.85595099999993" y1="175.7332300000001" x2="68.20731699999993" y2="113.5793500000001"
         id="traverse-step-582" />
      <line x1="68.20731699999993" y1="113.5793500000001" x2="63.771470999999934" y2="140.9367500000001"
         id="traverse-step-583" />
      <line x1="63.771470999999934" y1="140.9367500000001" x2="61.30912399999993" y2="125.3479200000001"
         id="traverse-step-584" />
      <line x1="61.30912399999993" y1="125.3479200000001" x2="59.58833199999993" y2="151.02436000000012"
         id="traverse-step-585" />
      <line x1="59.58833199999993" y1="151.02436000000012" x2="61.40628999999993" y2="148.9182200000001"
         id="traverse-step-586" />
      <line x1="61.40628999999993" y1="148.9182200000001" x2="61.30911999999993" y2="125.3479200000001"
         id="traverse-step-587" />
      <line x1="61.30911999999993" y1="125.3479200000001" x2="58.14066099999993" y2="124.6237100000001"
         id="traverse-step-588" />
      <line x1="58.14066099999993" y1="124.6237100000001" x2="65.23423799999993" y2="111.95109000000011"
         id="traverse-step-589" />
      <line x1="65.23423799999993" y1="111.95109000000011" x2="63.77146699999993" y2="140.9367500000001"
         id="traverse-step-590" />
      <line x1="63.77146699999993" y1="140.9367500000001" x2="63.07060699999993" y2="153.4824400000001"
         id="traverse-step-591" />
      <line x1="63.07060699999993" y1="153.4824400000001" x2="57.30948499999993" y2="159.0899600000001"
         id="traverse-step-592" />
      <line x1="57.30948499999993" y1="159.0899600000001" x2="64.40515799999993" y2="157.2498000000001"
         id="traverse-step-593" />
      <line x1="64.40515799999993" y1="157.2498000000001" x2="63.07060699999993" y2="153.4824400000001"
         id="traverse-step-594" />
      <line x1="63.07060699999993" y1="153.4824400000001" x2="64.40515799999993" y2="157.2498000000001"
         id="traverse-step-595" />
      <line x1="64.40515799999993" y1="157.2498000000001" x2="66.27124299999993" y2="159.1923700000001"
         id="traverse-step-596" />
      <line x1="66.27124299999993" y1="159.1923700000001" x2="68.20731299999993" y2="113.57935000000009"
         id="traverse-step-597" />
      <line x1="68.20731299999993" y1="113.57935000000009" x2="70.99555799999993" y2="113.65175000000009"
         id="traverse-step-598" />
      <line x1="70.99555799999993" y1="113.65175000000009" x2="72.92854599999993" y2="115.1772900000001"
         id="traverse-step-599" />
      <line x1="72.92854599999993" y1="115.1772900000001" x2="71.64735899999992" y2="152.36130000000009"
         id="traverse-step-600" />
      <line x1="71.64735899999992" y1="152.36130000000009" x2="73.16821299999992" y2="166.4835700000001"
         id="traverse-step-601" />
      <line x1="73.16821299999992" y1="166.4835700000001" x2="75.46997399999992" y2="164.2460800000001"
         id="traverse-step-602" />
      <line x1="75.46997399999992" y1="164.2460800000001" x2="72.92854599999993" y2="115.17729000000008"
         id="traverse-step-603" />
      <line x1="72.92854599999993" y1="115.17729000000008" x2="74.63475899999993" y2="117.77980000000008"
         id="traverse-step-604" />
      <line x1="74.63475899999993" y1="117.77980000000008" x2="75.46997399999994" y2="164.24608000000006"
         id="traverse-step-605" />
      <line x1="75.46997399999994" y1="164.24608000000006" x2="77.83943699999993" y2="153.62868000000006"
         id="traverse-step-606" />
      <line x1="77.83943699999993" y1="153.62868000000006" x2="77.40942599999994" y2="144.57186000000007"
         id="traverse-step-607" />
      <line x1="77.40942599999994" y1="144.57186000000007" x2="81.19896799999994" y2="123.67816000000008"
         id="traverse-step-608" />
      <line x1="81.19896799999994" y1="123.67816000000008" x2="81.71107199999993" y2="130.61712000000009"
         id="traverse-step-609" />
      <line x1="81.71107199999993" y1="130.61712000000009" x2="80.96376899999993" y2="151.74845000000008"
         id="traverse-step-610" />
      <line x1="80.96376899999993" y1="151.74845000000008" x2="80.90505899999992" y2="153.7076500000001"
         id="traverse-step-611" />
      <line x1="80.90505899999992" y1="153.7076500000001" x2="84.45631499999992" y2="151.8877500000001"
         id="traverse-step-612" />
      <line x1="84.45631499999992" y1="151.8877500000001" x2="84.24908799999992" y2="150.2821000000001"
         id="traverse-step-613" />
      <line x1="84.24908799999992" y1="150.2821000000001" x2="81.71106999999992" y2="130.6171200000001"
         id="traverse-step-614" />
      <line x1="81.71106999999992" y1="130.6171200000001" x2="85.15405299999992" y2="145.6260600000001"
         id="traverse-step-615" />
      <line x1="85.15405299999992" y1="145.6260600000001" x2="87.70264399999992" y2="145.1351700000001"
         id="traverse-step-616" />
      <line x1="87.70264399999992" y1="145.1351700000001" x2="87.26735899999993" y2="126.9812000000001"
         id="traverse-step-617" />
      <line x1="87.26735899999993" y1="126.9812000000001" x2="89.97011299999993" y2="144.1776200000001"
         id="traverse-step-618" />
      <line x1="89.97011299999993" y1="144.1776200000001" x2="91.59460899999992" y2="124.70236000000011"
         id="traverse-step-619" />
      <line x1="91.59460899999992" y1="124.70236000000011" x2="81.19896599999993" y2="123.67816000000012"
         id="traverse-step-620" />
      <line x1="81.19896599999993" y1="123.67816000000012" x2="79.22738099999992" y2="117.81460000000013"
         id="traverse-step-621" />
      <line x1="79.22738099999992" y1="117.81460000000013" x2="91.59460899999992" y2="124.70236000000013"
         id="traverse-step-622" />
      <line x1="91.59460899999992" y1="124.70236000000013" x2="81.53183299999992" y2="111.64379000000012"
         id="traverse-step-623" />
      <line x1="81.53183299999992" y1="111.64379000000012" x2="75.82191299999992" y2="111.89984000000013"
         id="traverse-step-624" />
      <line x1="75.82191299999992" y1="111.89984000000013" x2="79.22738099999992" y2="117.81460000000013"
         id="traverse-step-625" />
      <line x1="79.22738099999992" y1="117.81460000000013" x2="74.63475699999992" y2="117.77980000000012"
         id="traverse-step-626" />
      <line x1="74.63475699999992" y1="117.77980000000012" x2="81.19896599999993" y2="123.67816000000012"
         id="traverse-step-627" />
      <line x1="81.19896599999993" y1="123.67816000000012" x2="87.70264399999992" y2="145.13517000000013"
         id="traverse-step-628" />
      <line x1="87.70264399999992" y1="145.13517000000013" x2="88.38954499999993" y2="147.29868000000013"
         id="traverse-step-629" />
      <line x1="88.38954499999993" y1="147.29868000000013" x2="90.47516199999993" y2="146.52261000000013"
         id="traverse-step-630" />
      <line x1="90.47516199999993" y1="146.52261000000013" x2="93.15667699999993" y2="142.47570000000013"
         id="traverse-step-631" />
      <line x1="93.15667699999993" y1="142.47570000000013" x2="93.51499199999994" y2="128.59432000000012"
         id="traverse-step-632" />
      <line x1="93.51499199999994" y1="128.59432000000012" x2="94.31543099999993" y2="140.59273000000013"
         id="traverse-step-633" />
      <line x1="94.31543099999993" y1="140.59273000000013" x2="97.83987899999994" y2="137.55233000000013"
         id="traverse-step-634" />
      <line x1="97.83987899999994" y1="137.55233000000013" x2="96.58759599999993" y2="115.97104000000013"
         id="traverse-step-635" />
      <line x1="96.58759599999993" y1="115.97104000000013" x2="94.64132599999994" y2="102.35392000000013"
         id="traverse-step-636" />
      <line x1="94.64132599999994" y1="102.35392000000013" x2="103.09126999999994" y2="84.11839700000013"
         id="traverse-step-637" />
      <line x1="103.09126999999994" y1="84.11839700000013" x2="106.98926999999993" y2="77.07866100000012"
         id="traverse-step-638" />
      <line x1="106.98926999999993" y1="77.07866100000012" x2="114.44599999999994" y2="68.31289000000012"
         id="traverse-step-639" />
      <line x1="114.44599999999994" y1="68.31289000000012" x2="117.55634999999994" y2="62.026869000000126"
         id="traverse-step-640" />
      <line x1="117.55634999999994" y1="62.026869000000126" x2="120.96314999999994" y2="59.78181900000013"
         id="traverse-step-641" />
      <line x1="120.96314999999994" y1="59.78181900000013" x2="120.10760999999994" y2="54.75799500000013"
         id="traverse-step-642" />
      <line x1="120.10760999999994" y1="54.75799500000013" x2="115.22398999999994" y2="47.80057600000013"
         id="traverse-step-643" />
      <line x1="115.22398999999994" y1="47.80057600000013" x2="110.91119999999995" y2="44.101659000000126"
         id="traverse-step-644" />
      <line x1="110.91119999999995" y1="44.101659000000126" x2="99.38530999999995" y2="37.41519700000013"
         id="traverse-step-645" />
      <line x1="99.38530999999995" y1="37.41519700000013" x2="96.02953399999994" y2="36.821710000000124"
         id="traverse-step-646" />
      <line x1="96.02953399999994" y1="36.821710000000124" x2="84.90205099999994" y2="35.518080000000126"
         id="traverse-step-647" />
      <line x1="84.90205099999994" y1="35.518080000000126" x2="81.96199499999994" y2="36.352436000000125"
         id="traverse-step-648" />
      <line x1="81.96199499999994" y1="36.352436000000125" x2="67.13854199999994" y2="41.67541300000013"
         id="traverse-step-649" />
      <line x1="67.13854199999994" y1="41.67541300000013" x2="64.43059299999994" y2="43.86899900000013"
         id="traverse-step-650" />
      <line x1="64.43059299999994" y1="43.86899900000013" x2="59.94666999999995" y2="47.91933900000013"
         id="traverse-step-651" />
      <line x1="59.94666999999995" y1="47.91933900000013" x2="56.136039999999944" y2="49.91034900000013"
         id="traverse-step-652" />
      <line x1="56.136039999999944" y1="49.91034900000013" x2="54.508042999999944" y2="52.73148600000013"
         id="traverse-step-653" />
      <line x1="54.508042999999944" y1="52.73148600000013" x2="52.29858699999994" y2="60.930833000000135"
         id="traverse-step-654" />
      <line x1="52.29858699999994" y1="60.930833000000135" x2="45.46661199999994" y2="73.53333900000014"
         id="traverse-step-655" />
      <line x1="45.46661199999994" y1="73.53333900000014" x2="51.04761099999994" y2="82.67779200000014"
         id="traverse-step-656" />
      <line x1="51.04761099999994" y1="82.67779200000014" x2="48.086232999999936" y2="86.52690500000014"
         id="traverse-step-657" />
      <line x1="48.086232999999936" y1="86.52690500000014" x2="48.288612999999934" y2="90.45093500000014"
         id="traverse-step-658" />
      <line x1="48.288612999999934" y1="90.45093500000014" x2="51.31183699999993" y2="98.12239100000015"
         id="traverse-step-659" />
      <line x1="51.31183699999993" y1="98.12239100000015" x2="53.935434999999934" y2="102.48237000000015"
         id="traverse-step-660" />
      <line x1="53.935434999999934" y1="102.48237000000015" x2="51.21282499999993" y2="118.70093000000014"
         id="traverse-step-661" />
      <line x1="51.21282499999993" y1="118.70093000000014" x2="52.50114199999993" y2="121.81111000000014"
         id="traverse-step-662" />
      <line x1="52.50114199999993" y1="121.81111000000014" x2="51.52231599999993" y2="128.96901000000014"
         id="traverse-step-663" />
      <line x1="51.52231599999993" y1="128.96901000000014" x2="54.50858799999993" y2="132.57879000000014"
         id="traverse-step-664" />
      <line x1="54.50858799999993" y1="132.57879000000014" x2="54.31508499999993" y2="138.09983000000014"
         id="traverse-step-665" />
      <line x1="54.31508499999993" y1="138.09983000000014" x2="47.13060299999993" y2="144.19912000000014"
         id="traverse-step-666" />
      <line x1="47.13060299999993" y1="144.19912000000014" x2="40.06323799999993" y2="146.52737000000013"
         id="traverse-step-667" />
      <line x1="40.06323799999993" y1="146.52737000000013" x2="37.461166999999925" y2="148.70494000000014"
         id="traverse-step-668" />
      <line x1="37.461166999999925" y1="148.70494000000014" x2="26.128798999999923" y2="159.40886000000015"
         id="traverse-step-669" />
      <line x1="26.128798999999923" y1="159.40886000000015" x2="25.03271499999992" y2="162.39166000000014"
         id="traverse-step-670" />
      <line x1="25.03271499999992" y1="162.39166000000014" x2="18.49220499999992" y2="193.48921000000013"
         id="traverse-step-671" />
      <line x1="18.49220499999992" y1="193.48921000000013" x2="18.94834199999992" y2="196.85072000000014"
         id="traverse-step-672" />
      <line x1="18.94834199999992" y1="196.85072000000014" x2="22.42679399999992" y2="214.06707000000014"
         id="traverse-step-673" />
      <line x1="22.42679399999992" y1="214.06707000000014" x2="14.11150899999992" y2="225.78951000000015"
         id="traverse-step-674" />
      <line x1="14.11150899999992" y1="225.78951000000015" x2="12.753753999999919" y2="229.50369000000015"
         id="traverse-step-675" />
      <line x1="12.753753999999919" y1="229.50369000000015" x2="9.638092599999919" y2="238.78220000000016"
         id="traverse-step-676" />
      <line x1="9.638092599999919" y1="238.78220000000016" x2="9.638092599999919" y2="242.29425000000015"
         id="traverse-step-677" />
      <line x1="9.638092599999919" y1="242.29425000000015" x2="13.094200999999918" y2="239.64335000000014"
         id="traverse-step-678" />
      <line x1="13.094200999999918" y1="239.64335000000014" x2="35.86448" y2="239.64335000000014"
         id="traverse-step-679" />
      <line x1="35.86448" y1="239.64335000000014" x2="44.998955" y2="216.49640000000014" id="traverse-step-680" />
      <line x1="44.998955" y1="216.49640000000014" x2="49.730391000000004" y2="239.64335000000014"
         id="traverse-step-681" />
      <line x1="49.730391000000004" y1="239.64335000000014" x2="199.87829" y2="239.64335000000014"
         id="traverse-step-682" />
      <line x1="199.87829" y1="239.64335000000014" x2="203.43904" y2="240.96099000000015" id="traverse-step-683" />
      <line x1="203.43904" y1="240.96099000000015" x2="203.43904" y2="238.09746000000015" id="traverse-step-684" />
      <line x1="203.43904" y1="238.09746000000015" x2="199.11545" y2="209.69743000000017" id="traverse-step-685" />
      <line x1="199.11545" y1="209.69743000000017" x2="204.67440000000002" y2="193.25594000000018"
         id="traverse-step-686" />
      <line x1="204.67440000000002" y1="193.25594000000018" x2="204.25942" y2="190.10923000000017"
         id="traverse-step-687" />
      <line x1="204.25942" y1="190.10923000000017" x2="194.47818" y2="156.62854000000016" id="traverse-step-688" />
      <line x1="194.47818" y1="156.62854000000016" x2="124.39239" y2="111.33709000000016" id="traverse-step-689" />
      <line x1="124.39239" y1="111.33709000000016" x2="121.84574" y2="99.13851300000016" id="traverse-step-690" />
      <line x1="121.84574" y1="99.13851300000016" x2="127.91844" y2="94.39317600000015" id="traverse-step-691" />
      <line x1="127.91844" y1="94.39317600000015" x2="129.19714" y2="91.48385000000016" id="traverse-step-692" />
      <line x1="129.19714" y1="91.48385000000016" x2="133.63911" y2="73.14694400000016" id="traverse-step-693" />
      <line x1="133.63911" y1="73.14694400000016" x2="132.38987999999998" y2="69.67557700000016"
         id="traverse-step-694" />
      <line x1="132.38987999999998" y1="69.67557700000016" x2="126.90363999999998" y2="65.68639600000016"
         id="traverse-step-695" />
      <line x1="126.90363999999998" y1="65.68639600000016" x2="122.08393999999998" y2="66.56843200000016"
         id="traverse-step-696" />
      <line x1="122.08393999999998" y1="66.56843200000016" x2="120.96315999999999" y2="59.781819000000155"
         id="traverse-step-697" />
   </g>

</svg>