<?xml version="1.0" encoding="UTF-8" standalone="no"?>
<!-- Created with Inkscape (http://www.inkscape.org/) -->

<svg
   version="1.1"
   id="svg1"
   width="793.70087"
   height="1122.5197"
   viewBox="0 0 793.70085 1122.5196"
   sodipodi:docname="Template Polydot A4.svg"
   inkscape:version="1.3.2 (091e20e, 2023-11-25, custom)"
   xml:space="preserve"
   xmlns:inkscape="http://www.inkscape.org/namespaces/inkscape"
   xmlns:sodipodi="http://sodipodi.sourceforge.net/DTD/sodipodi-0.dtd"
   xmlns="http://www.w3.org/2000/svg"
   xmlns:svg="http://www.w3.org/2000/svg"><sodipodi:namedview
     id="namedview1"
     pagecolor="#ffffff"
     bordercolor="#666666"
     borderopacity="1.0"
     inkscape:showpageshadow="2"
     inkscape:pageopacity="0.0"
     inkscape:pagecheckerboard="0"
     inkscape:deskcolor="#d1d1d1"
     showgrid="false"
     showguides="true"
     inkscape:zoom="0.57197485"
     inkscape:cx="816.46947"
     inkscape:cy="561.21349"
     inkscape:window-width="3840"
     inkscape:window-height="2054"
     inkscape:window-x="-11"
     inkscape:window-y="-11"
     inkscape:window-maximized="1"
     inkscape:current-layer="svg1"
     inkscape:document-units="mm"><inkscape:page
       x="0"
       y="0"
       width="793.70087"
       height="1122.5197"
       id="page1"
       margin="0"
       bleed="0" /></sodipodi:namedview><style
     id="style1" /><defs
     id="defs1"><rect
       x="36"
       y="179.9996"
       width="675"
       height="900"
       id="sequence_string_rect" /></defs><path
     style="fill:#d3d3d3;stroke:none"
     d="m 263.58053,826.41823 -41.25,-14.476 -53.5775,-53.55003 -53.5775,-53.55005 -24.797506,-70.85163 c -13.63864,-38.9684 -24.79991,-71.39018 -24.80284,-72.04839 -0.003,-0.65821 3.74239,-34.49675 8.32291,-75.19675 l 8.32822,-74 33.447596,-53.25 c 18.39617,-29.2875 33.60712,-53.171 33.80212,-53.07445 0.1949,0.0966 18.5458,17.64656 40.7795,39 22.2338,21.35345 41.1914,39.49945 42.128,40.32445 l 1.7028,1.5 -1.9795,24.25 -1.9794,24.25 -24.9981,58 -24.998,58 14.0293,27.75 c 7.7162,15.2625 14.1776,27.91162 14.3588,28.10916 0.1812,0.19754 9.0168,1.44251 19.6347,2.7666 l 19.3053,2.40743 18.6855,-7.92947 c 10.2771,-4.36122 18.8384,-8.08118 19.0253,-8.2666 0.1868,-0.18542 1.3849,-9.33712 2.6624,-20.33712 1.2774,-11 2.4962,-20.17912 2.7083,-20.39803 0.4641,-0.47897 104.0821,-56.35322 104.4986,-56.34907 0.3299,0.003 16.2106,40.40407 16.2023,41.21898 0,0.29047 -11.3315,20.65717 -25.1745,45.25935 l -25.169,44.73123 -17.1832,24.15288 -17.1832,24.15288 -15,41.08999 -15.0001,41.08999 4.7743,39.30899 c 2.6259,21.61996 4.7744,39.57536 4.7744,39.90091 0,0.32555 -0.2813,0.56915 -0.625,0.54135 -0.3438,-0.028 -19.1875,-6.5648 -41.875,-14.5266 z"
     id="source_plane_1" /><path
     style="fill:#d3d3d3;stroke:none"
     d="m 689.38193,687.95398 c -0.1272,-0.38975 -4.3162,-38.5086 -9.3089,-84.7086 l -9.0775,-84 -11.0081,-38.75 c -6.0544,-21.3125 -11.294,-39.2 -11.6434,-39.75 -0.3494,-0.55 -14.7829,-15.54953 -32.0744,-33.33229 -22.6348,-23.27783 -41.7307,-43.59761 -68.1891,-72.55925 l -36.75,-40.22696 -43,-17.5567 -43,-17.5567 -24.3227,-7.08723 -24.3227,-7.08722 -40.1773,16.79625 c -22.0975,9.23795 -40.5261,16.92992 -40.9523,17.09328 -0.5282,0.20245 -7.5329,-5.49853 -22,-17.90532 -11.6738,-10.01129 -21.337,-18.0999 -21.4738,-17.9747 -0.1368,0.12521 -0.7324,9.13964 -1.3237,20.03207 l -1.075,19.80442 9.7191,25.71812 c 5.3455,14.14496 9.6281,25.80919 9.5168,25.9205 -0.1113,0.11131 -8.2407,-9.3662 -18.0652,-21.06113 -9.8246,-11.69494 -18.1031,-21.41202 -18.3968,-21.59352 -0.855,-0.52843 -0.5489,0.2623 10.0741,26.01896 5.5445,13.44343 10.0176,24.49062 9.9402,24.54933 -0.3903,0.29596 -95.3954,-48.56544 -95.278,-49.00172 0.076,-0.28039 1.2623,-2.36053 2.6373,-4.62253 l 2.5,-4.11271 63,-39.58675 c 34.65,-21.77272 63.4883,-39.90048 64.0852,-40.28393 0.7317,-0.47007 25.4884,-3.44865 76,-9.14388 l 74.9148,-8.44671 71,24.79844 71,24.79844 53.6916,53.62163 53.6916,53.62162 24.8933,71.17206 24.8933,71.17206 -8.4462,74.91724 -8.4462,74.91724 -16.0727,25.59379 c -8.84,14.07659 -16.2638,25.80015 -16.4973,26.0524 -0.2511,0.2712 -0.5192,0.169 -0.656,-0.25 z"
     id="source_plane_2" /><path
     style="fill:#d3d3d3;stroke:none"
     d="m 352.70553,857.61489 c -5.8438,-2.06556 -10.625,-3.90714 -10.625,-4.0924 0,-0.35491 318.6324,-119.56137 318.8907,-119.30309 0.082,0.0824 -4.078,6.89979 -9.2454,15.14968 l -9.3953,14.99979 -64,40.22047 -64,40.22047 -74.25,8.35336 c -40.8375,4.59434 -74.8125,8.32048 -75.5,8.28031 -0.6875,-0.0401 -6.0313,-1.76304 -11.875,-3.82859 z"
     id="source_plane_3" /><path
     style="fill:#d3d3d3;stroke:none"
     d="m 268.00973,431.87038 c 0.04,-0.24063 0.6911,-6.37188 1.4482,-13.625 0.7571,-7.25313 1.3903,-13.27134 1.4073,-13.3738 0.022,-0.13244 3.9515,-1.38341 13.5918,-4.32687 7.4585,-2.27732 13.579,-4.1255 13.6009,-4.10707 0.039,0.0327 -29.3939,35.12353 -29.8769,35.62024 -0.2419,0.24878 -0.2427,0.24786 -0.1713,-0.1875 z"
     id="source_plane_4" /><path
     style="fill:#d3d3d3;stroke:none"
     d="m 270.66923,430.03331 c 5.8452,-7.35938 27.1983,-32.37222 27.3268,-32.01042 0.2889,0.81273 -1.432,23.69091 -1.8069,24.02149 -0.4201,0.3705 -25.6625,9.4524 -26.2699,9.45156 -0.2261,-3.1e-4 0.1114,-0.65849 0.75,-1.46263 z"
     id="source_plane_5" /><path
     style="fill:#d3d3d3;stroke:none"
     d="m 143.28336,299.57951 c -3.2228,-3.09982 -5.8063,-5.65382 -5.7411,-5.67555 0.0831,-0.0277 14.78587,3.8921 15.94277,4.25041 0.065,0.0201 -4.1518,6.89053 -4.3238,7.04485 -0.01,0.009 -2.6551,-2.51988 -5.87787,-5.61971 z"
     id="source_plane_6" /><path
     style="fill:#d3d3d3;stroke:none"
     d="m 144.5653,295.45327 -7.8277,-2.14539 -9.44031,-9.0625 c -5.19217,-4.98438 -9.42573,-9.07835 -9.4079,-9.09773 0.0257,-0.0279 16.38223,10.47798 32.67824,20.9894 1.2648,0.81583 2.1929,1.47844 2.0625,1.47247 -0.1304,-0.006 -3.7596,-0.97629 -8.06483,-2.15625 z"
     id="source_plane_7" /><path
     style="fill:#d3d3d3;stroke:none"
     d="m 136.85917,286.96627 c -9.29794,-5.98724 -16.88191,-10.90931 -16.85328,-10.93795 0.0524,-0.0524 35.66704,18.04285 35.87184,18.2259 0.082,0.0731 -1.2341,2.32401 -2.049,3.50484 -0.035,0.0512 -7.6716,-4.80554 -16.96956,-10.79279 z"
     id="source_plane_8" /><path
     d="m 379.91853,838.66638 312.74,-116.879 -22.133,-203.101 -110.23,-107.192 -43.398,-69.003 -6.075,-47.737 -89.834,6.076 4.774,-40.794 85.06,34.718 75.078,82.021 62.492,64.229 -25.604,12.151 -62.493,-41.661 -105.89,-72.041 -138.047,-26.516 60.365,-67.223 -105.891,92.438 -17.359,5.641 -137.13703,-69.87 58.80103,29.959 -38.43403,-10.416 21.96603,21.077 50.188,6.519 -33.5,9.495 78.116,13.236 -19.095,43.398 -3.906,48.605 24.737,-26.472 33.995,-24.131 -18.372,-47.041 26.907,-1.302 0.868,59.237 -1.736,26.256 -29.077,10.416 30.813,-36.672 -27.846,8.493 -2.967,28.179 -47.71,86.147 -39.519,32.762 30.763,36.061 -16.659,-8.069 22.784,-39.709 37.467,4.367 -7.523,68.107 28.643,-26.039 -9.114,-14.755 -12.006,-27.313 77.103,-43.425 -13.887,-46.002 -63.216,89.427 68.021,-6.542 50.3,-87.118 -55.105,4.233 35.284,66.455 41.964,-22.623 -51.879,3.437 -11.482,-1.267 -65.097,70.738 -12.006,-27.313 -37.467,-4.367 -10.761,-2.297 -26.127,14.014 36.888,-11.717 100.683,-85.06 77.248,43.832 16.491,42.096 -50.776,90.267 -34.284,48.172 20.831,2.169 75.512,-11.717 113.702,-115.438 86.796,88.965 69.002,78.55 -54.247,-115.004 -11.284,-23.434 -27.774,-86.362 -39.058,-85.493 -39.926,-18.661 -65.964,-53.38 -33.417,-38.623 -104.63,12.107 -64.187,-69.392 42.53,36.454 82.022,-34.285 49.039,14.322 -4.774,40.794 95.909,41.661 -1.837,-12.633 70.84,46.917 36.888,76.38 25.604,-12.151 22.133,77.682 -23.001,24.737 -48.171,-46.436 48.171,92.437 -9.113,17.359 -11.284,-23.434 -3.471,59.888 -88.532,-29.51 41.662,66.398 23.435,-18.444 92.437,60.106 -115.872,-41.662 -48.087,102.938 -33.501,-28.727 39.926,-140.609 -225.668,251.273 30.702,-11.477 -118.375,-41.422 -106.85103,-106.851 -49.909096,-142.631 16.919,-150.16 80.396126,-127.949 127.949,-80.396 150.16,-16.919 142.631,49.909 106.851,106.851 49.909,142.631 -16.919,150.16 -80.396,127.949 -127.949,80.396 -150.16,16.919 -24.256,-8.487 39.76,-14.857 115.28,-84.33 197.46,-32.549 -45.134,-132.363 23.001,-70.738 -87.435,-57.297 -19.757,-6.498 -3.038,-43.397 25.605,-34.719 -74.634,1.363 -115.882,120.585 -105.457,56.851 -4.774,40.794 -37.756,16.057 -38.624,-4.774 -28.208,-55.983 49.907,-115.872 -13.019,104.155 -8.68,67.7 46.147,-63.333 51.109,-87.306 -38.235,-24.253 -12.585,-23.435 86.586,-26.69 -25.437,-69.697 -18.619,23.913 -45.568,-93.305 -2.17,39.491 20.831,55.116 v 0 l -38.624,-46.002 21.265,51.643 -25.171,12.586 6.076,30.812 2.971,-35.336 -121.01303,-77.932 118.04203,113.268 -3.906,48.605 24.737,-26.472 -1.736,-65.531 45.134,52.294 7.422,60.925 35.766,-74.378 53.589,116.089 25.972,-77.155 -9.481,119.251 13.019,65.53 -53.379,41.662 -23.869,33.416 -50.775,79.852 12.585,103.721 35.586,-132.363 2.604,-51.21 119.344,-76.814 69.87,-77.247 -37.756,-74.211 21.265,-60.322 -49.598,27.444 -90.786,-72.361 -63.627,-34.979 -6.157,27.613 31.594,42.084 57.616,16.229 21.945,22.705 19.924,49.272 71.502,74.536 -87.888,60.973 16.386,-135.509 -29.405,69.979 -40.36,107.192 -23.869,33.416 -20.831,-2.169 -29.944,82.021 12.585,103.721 161.874,-215.687 63.794,-35.586 1.736,-59.455 -9.981,-19.963 -72.474,-78.55 -138.047,-142.822 109.404,-52.901 -4.774,40.794 -41.003,47.086 140.384,44.917 16.491,134.533 26.473,-72.475 29.076,69.003 31.247,119.343 -46.87,36.888 -81.588,74.211 -185.742,110.664 9.204,-100.125 -21.789,-3.596 48.171,-28.642 126.288,-83.324 92.605,-67.289 28.474,-58.13 6.944,-26.907 71.172,21.699 -47.737,-65.531 25.604,-12.151 -88.097,-29.51"
     id="aggregated_path"
     style="fill:none;stroke:#000000;stroke-width:1pt" /></svg>
